G04*
G04 #@! TF.GenerationSoftware,Altium Limited,Altium Designer,20.0.9 (164)*
G04*
G04 Layer_Color=32896*
%FSLAX25Y25*%
%MOIN*%
G70*
G01*
G75*
%ADD11C,0.00787*%
%ADD15C,0.00600*%
D11*
X88205Y-33591D02*
X98795D01*
X88205D02*
Y67590D01*
X98795D01*
Y-33591D02*
Y67590D01*
X-90205Y-50591D02*
Y30591D01*
X-100795D02*
X-90205D01*
X-100795Y-50591D02*
Y30591D01*
Y-50591D02*
X-90205D01*
Y-119591D02*
Y-58410D01*
X-100795D02*
X-90205D01*
X-100795Y-119591D02*
Y-58410D01*
Y-119591D02*
X-90205D01*
X88205Y-118591D02*
Y-37409D01*
Y-118591D02*
X98795D01*
Y-37409D01*
X88205D02*
X98795D01*
X-80425Y-112080D02*
X-79638D01*
X-80425Y-117001D02*
X-79638D01*
X-80425Y-101039D02*
X-79638D01*
X-80425Y-105961D02*
X-79638D01*
D15*
X85866Y64000D02*
Y67199D01*
X84266D01*
X83733Y66666D01*
Y65600D01*
X84266Y65067D01*
X85866D01*
X80534Y67199D02*
X81600Y66666D01*
X82667Y65600D01*
Y64534D01*
X82134Y64000D01*
X81067D01*
X80534Y64534D01*
Y65067D01*
X81067Y65600D01*
X82667D01*
X86807Y62472D02*
Y61140D01*
Y61806D01*
X82808D01*
X83475Y62472D01*
X86807Y-25520D02*
Y-26853D01*
Y-26186D01*
X82808D01*
X83475Y-25520D01*
Y-28852D02*
X82808Y-29518D01*
Y-30851D01*
X83475Y-31518D01*
X86141D01*
X86807Y-30851D01*
Y-29518D01*
X86141Y-28852D01*
X83475D01*
X-92334Y32401D02*
Y35599D01*
X-93934D01*
X-94467Y35066D01*
Y34000D01*
X-93934Y33467D01*
X-92334D01*
X-97666Y32401D02*
X-95533D01*
X-97666Y34533D01*
Y35066D01*
X-97133Y35599D01*
X-96066D01*
X-95533Y35066D01*
X-84000Y25500D02*
Y24167D01*
Y24834D01*
X-87999D01*
X-87332Y25500D01*
Y-43500D02*
X-87999Y-44166D01*
Y-45499D01*
X-87332Y-46166D01*
X-86666D01*
X-85999Y-45499D01*
X-85333Y-46166D01*
X-84666D01*
X-84000Y-45499D01*
Y-44166D01*
X-84666Y-43500D01*
X-85333D01*
X-85999Y-44166D01*
X-86666Y-43500D01*
X-87332D01*
X-85999Y-44166D02*
Y-45499D01*
X-92334Y-57600D02*
Y-54400D01*
X-93934D01*
X-94467Y-54934D01*
Y-56000D01*
X-93934Y-56533D01*
X-92334D01*
X-95533Y-54934D02*
X-96066Y-54400D01*
X-97133D01*
X-97666Y-54934D01*
Y-55467D01*
X-97133Y-56000D01*
X-96600D01*
X-97133D01*
X-97666Y-56533D01*
Y-57066D01*
X-97133Y-57600D01*
X-96066D01*
X-95533Y-57066D01*
X-83700Y-63600D02*
Y-64933D01*
Y-64266D01*
X-87699D01*
X-87032Y-63600D01*
X-87899Y-122466D02*
X-87232Y-121133D01*
X-85899Y-119800D01*
X-84566D01*
X-83900Y-120466D01*
Y-121799D01*
X-84566Y-122466D01*
X-85233D01*
X-85899Y-121799D01*
Y-119800D01*
X79734Y-119501D02*
Y-122699D01*
X81334D01*
X81867Y-122166D01*
Y-121100D01*
X81334Y-120567D01*
X79734D01*
X85066Y-122699D02*
X82933D01*
Y-121100D01*
X84000Y-121633D01*
X84533D01*
X85066Y-121100D01*
Y-120034D01*
X84533Y-119501D01*
X83466D01*
X82933Y-120034D01*
X82400Y-114100D02*
Y-112767D01*
Y-113434D01*
X86399D01*
X85732Y-114100D01*
X85932Y-44100D02*
X86599Y-43434D01*
Y-42101D01*
X85932Y-41434D01*
X85266D01*
X84599Y-42101D01*
X83933Y-41434D01*
X83266D01*
X82600Y-42101D01*
Y-43434D01*
X83266Y-44100D01*
X83933D01*
X84599Y-43434D01*
X85266Y-44100D01*
X85932D01*
X84599Y-43434D02*
Y-42101D01*
X-62501Y-116100D02*
Y-112900D01*
X-64101D01*
X-64634Y-113434D01*
Y-114500D01*
X-64101Y-115033D01*
X-62501D01*
X-63568D02*
X-64634Y-116100D01*
X-65700D02*
X-66767D01*
X-66233D01*
Y-112900D01*
X-65700Y-113434D01*
X-68366D02*
X-68899Y-112900D01*
X-69965D01*
X-70499Y-113434D01*
Y-113967D01*
X-69965Y-114500D01*
X-70499Y-115033D01*
Y-115566D01*
X-69965Y-116100D01*
X-68899D01*
X-68366Y-115566D01*
Y-115033D01*
X-68899Y-114500D01*
X-68366Y-113967D01*
Y-113434D01*
X-68899Y-114500D02*
X-69965D01*
X-62501Y-105099D02*
Y-101900D01*
X-64101D01*
X-64634Y-102434D01*
Y-103500D01*
X-64101Y-104033D01*
X-62501D01*
X-63568D02*
X-64634Y-105099D01*
X-65700D02*
X-66767D01*
X-66233D01*
Y-101900D01*
X-65700Y-102434D01*
X-68366Y-101900D02*
X-70499D01*
Y-102434D01*
X-68366Y-104566D01*
Y-105099D01*
M02*
