G04*
G04 #@! TF.GenerationSoftware,Altium Limited,Altium Designer,20.0.9 (164)*
G04*
G04 Layer_Physical_Order=1*
G04 Layer_Color=255*
%FSLAX25Y25*%
%MOIN*%
G70*
G01*
G75*
%ADD16R,0.03740X0.03347*%
%ADD17R,0.05709X0.04528*%
%ADD18R,0.05709X0.04724*%
%ADD19R,0.03158X0.03827*%
%ADD20R,0.03347X0.03740*%
G04:AMPARAMS|DCode=21|XSize=21.65mil|YSize=49.21mil|CornerRadius=1.95mil|HoleSize=0mil|Usage=FLASHONLY|Rotation=90.000|XOffset=0mil|YOffset=0mil|HoleType=Round|Shape=RoundedRectangle|*
%AMROUNDEDRECTD21*
21,1,0.02165,0.04532,0,0,90.0*
21,1,0.01776,0.04921,0,0,90.0*
1,1,0.00390,0.02266,0.00888*
1,1,0.00390,0.02266,-0.00888*
1,1,0.00390,-0.02266,-0.00888*
1,1,0.00390,-0.02266,0.00888*
%
%ADD21ROUNDEDRECTD21*%
%ADD22R,0.13189X0.05709*%
%ADD23R,0.09843X0.06693*%
%ADD24R,0.12598X0.06299*%
%ADD25R,0.07992X0.06496*%
%ADD26R,0.05315X0.09252*%
%ADD27R,0.21654X0.25591*%
%ADD28R,0.03740X0.08268*%
%ADD29R,0.03150X0.03150*%
%ADD30R,0.03150X0.04921*%
%ADD31R,0.04921X0.03150*%
%ADD32R,0.04528X0.05709*%
%ADD62C,0.02500*%
%ADD63C,0.02000*%
%ADD64C,0.01000*%
%ADD65C,0.05000*%
%ADD66C,0.07500*%
%ADD67C,0.03000*%
%ADD68C,0.06102*%
%ADD69R,0.06102X0.06102*%
%ADD70C,0.06299*%
%ADD71R,0.06299X0.06299*%
%ADD72R,0.08268X0.08268*%
%ADD73C,0.08268*%
%ADD74R,0.05906X0.05906*%
%ADD75C,0.05906*%
%ADD76R,0.05906X0.08268*%
%ADD77R,0.08268X0.05906*%
%ADD78C,0.05000*%
%ADD79C,0.02500*%
D16*
X73000Y3342D02*
D03*
Y8658D02*
D03*
X16500Y99185D02*
D03*
Y104500D02*
D03*
X-34000Y3342D02*
D03*
Y8658D02*
D03*
X20000Y3342D02*
D03*
Y8658D02*
D03*
D17*
X84000Y2555D02*
D03*
Y9445D02*
D03*
X-23500Y2555D02*
D03*
Y9445D02*
D03*
X30000Y2555D02*
D03*
Y9445D02*
D03*
D18*
X81500Y86437D02*
D03*
Y78563D02*
D03*
Y96563D02*
D03*
Y104437D02*
D03*
X3500Y-24126D02*
D03*
Y-32000D02*
D03*
X-49688Y-23642D02*
D03*
Y-31516D02*
D03*
X58989Y-31437D02*
D03*
Y-23563D02*
D03*
D19*
X48240Y-32516D02*
D03*
X40760D02*
D03*
X44500Y-39484D02*
D03*
X-59437Y-33031D02*
D03*
X-66917D02*
D03*
X-63177Y-40000D02*
D03*
X-7249Y-33516D02*
D03*
X-14729D02*
D03*
X-10989Y-40484D02*
D03*
D20*
X51157Y-85499D02*
D03*
X45842D02*
D03*
X-1843D02*
D03*
X-7158D02*
D03*
X-60658Y-85500D02*
D03*
X-55343D02*
D03*
D21*
X51835Y-78612D02*
D03*
Y-73612D02*
D03*
Y-68612D02*
D03*
Y-63612D02*
D03*
X31165Y-78612D02*
D03*
Y-73612D02*
D03*
Y-68612D02*
D03*
Y-63612D02*
D03*
X-1165Y-78612D02*
D03*
Y-73612D02*
D03*
Y-68612D02*
D03*
Y-63612D02*
D03*
X-21835Y-78612D02*
D03*
Y-73612D02*
D03*
Y-68612D02*
D03*
Y-63612D02*
D03*
X-54665Y-78612D02*
D03*
Y-73612D02*
D03*
Y-68612D02*
D03*
Y-63612D02*
D03*
X-75335Y-78612D02*
D03*
Y-73612D02*
D03*
Y-68612D02*
D03*
Y-63612D02*
D03*
D22*
X13500Y-64346D02*
D03*
Y-86000D02*
D03*
X-40000Y-64346D02*
D03*
Y-86000D02*
D03*
X66500Y-64346D02*
D03*
Y-86000D02*
D03*
D23*
X-76248Y82000D02*
D03*
X-60500D02*
D03*
D24*
X-78342Y58000D02*
D03*
X-58657D02*
D03*
D25*
X-37500Y89520D02*
D03*
Y77000D02*
D03*
D26*
X-25000Y107000D02*
D03*
Y117433D02*
D03*
D27*
X-2500Y113500D02*
D03*
D28*
X6476Y88697D02*
D03*
X-11476D02*
D03*
D29*
X7500Y76500D02*
D03*
X1201D02*
D03*
X-43350Y-41000D02*
D03*
X-49650D02*
D03*
X2350D02*
D03*
X8650D02*
D03*
X57350Y-42000D02*
D03*
X63650D02*
D03*
D30*
X-5500Y76500D02*
D03*
X-11799D02*
D03*
D31*
X68500Y-25850D02*
D03*
Y-32150D02*
D03*
X-39500D02*
D03*
Y-25850D02*
D03*
X13500D02*
D03*
Y-32150D02*
D03*
D32*
X-59055Y-21000D02*
D03*
X-65945D02*
D03*
X-7055Y-21100D02*
D03*
X-13945D02*
D03*
X41055Y-19900D02*
D03*
X47945D02*
D03*
D62*
X41028Y-26672D02*
Y-20028D01*
X41000Y-26700D02*
X41028Y-26672D01*
Y-19928D02*
X41055Y-19900D01*
D63*
X41000Y-26700D02*
Y-20055D01*
X-14500Y-27800D02*
Y-23760D01*
X50917Y-23563D02*
X58989D01*
X47945Y-20591D02*
X50917Y-23563D01*
X21287Y9445D02*
X29500D01*
X-33500Y8315D02*
X-26542D01*
X-14500Y-23760D02*
X-13815Y-23075D01*
X-13315Y-29070D02*
Y-28258D01*
X68000Y18500D02*
X74000D01*
X83500Y28000D01*
Y69328D01*
X82328Y70500D02*
X83500Y69328D01*
X76172Y70500D02*
X82328D01*
X75000Y71672D02*
X76172Y70500D01*
X75000Y71672D02*
Y114828D01*
X76172Y116000D01*
X94610D01*
X-39500Y-8000D02*
Y-7852D01*
Y-25850D02*
Y-8000D01*
X-101414Y-44500D02*
X-96000D01*
X-102000Y65500D02*
X-98500Y69000D01*
X-89000D01*
X-102000Y-43914D02*
Y65500D01*
X0Y69000D02*
X7500Y76500D01*
X-48000Y69000D02*
X0D01*
X-95500Y-35000D02*
Y-25000D01*
X-66315Y-28000D02*
Y-22591D01*
X-25412Y9445D02*
X-25063Y9096D01*
X7500Y76500D02*
Y87673D01*
X-13390Y-23000D02*
X-13315Y-23075D01*
X-66390Y-22516D02*
X-66315Y-22591D01*
Y-32957D02*
X-66240Y-33031D01*
X-58760D02*
X-51754D01*
X-50238Y-31516D01*
X-59500Y-22516D02*
X-51600D01*
Y-22279D01*
X-5760Y-33516D02*
X1492D01*
X3008Y-32000D01*
X3500D01*
X-5937Y-23563D02*
X2937D01*
X-6500Y-23000D02*
X-5937Y-23563D01*
X48240Y-32516D02*
X57142D01*
X7846Y92331D02*
X13768Y98252D01*
X15567D01*
D64*
X41000Y-27000D02*
Y-26700D01*
X51947Y-73500D02*
X57100D01*
X51835Y-73612D02*
X51947Y-73500D01*
X47945Y-20491D02*
Y-19900D01*
X77894Y9445D02*
X82000D01*
X73787D02*
X77894D01*
X-57500Y13000D02*
X-50500D01*
X-48504Y11004D01*
X-67500Y18500D02*
X51000D01*
X-40734Y-63612D02*
X-40000Y-64346D01*
X1500Y16000D02*
X4996Y12504D01*
X-63500Y15000D02*
X-63164D01*
X-62164Y16000D02*
X1500D01*
X-63164Y15000D02*
X-62164Y16000D01*
X-86500Y12500D02*
X-84250Y14750D01*
X-86500Y-62000D02*
Y12500D01*
X-84000Y19000D02*
Y19250D01*
X-88500Y14500D02*
X-84000Y19000D01*
X-84287Y9713D02*
X-84000Y10000D01*
X4996Y7000D02*
Y12504D01*
X-84287Y8877D02*
Y9713D01*
X-84500Y8664D02*
X-84287Y8877D01*
X-88190Y-63690D02*
X-86500Y-62000D01*
X-88500Y-59000D02*
Y14500D01*
X73000Y8658D02*
X73787Y9445D01*
X62154Y3342D02*
X73000D01*
X58496Y7000D02*
X62154Y3342D01*
X73787Y2555D02*
X82000D01*
X73000Y3342D02*
X73787Y2555D01*
X-84500Y-64000D02*
Y8664D01*
X73000Y-46500D02*
X79500Y-53000D01*
X93500D01*
X69666Y-48166D02*
X84500Y-63000D01*
X68166Y-49666D02*
X82500Y-64000D01*
X84500Y-63000D02*
X93500D01*
X82500Y-72500D02*
Y-64000D01*
X83063Y106000D02*
X93500D01*
X81500Y104437D02*
X83063Y106000D01*
X81500Y86437D02*
Y96563D01*
Y86437D02*
X81937Y86000D01*
X93500D01*
X89055Y80500D02*
X98914D01*
X88980Y80425D02*
X89055Y80500D01*
X81500Y78563D02*
X83362Y80425D01*
X88980D01*
X98914Y80500D02*
X99500Y79914D01*
X-85500Y-65000D02*
X-84500Y-64000D01*
X51157Y-79195D02*
Y-78395D01*
X94361Y106388D02*
X94749Y106000D01*
Y96000D02*
X95249Y95500D01*
X100000D01*
X101500Y84000D02*
Y94000D01*
X100000Y95500D02*
X101500Y94000D01*
X99500Y-97000D02*
Y79914D01*
X94000Y-102500D02*
X98414D01*
X99000Y-101914D01*
Y-97500D01*
X99500Y-97000D01*
X93500Y-103000D02*
X94000Y-102500D01*
X93000Y-83000D02*
X93500D01*
X82500Y-72500D02*
X93000Y-83000D01*
X73000Y-46500D02*
Y-30000D01*
X93500Y-113000D02*
X100000D01*
X101500Y-111500D01*
X101500Y84000D02*
X101500Y-111500D01*
X-2500Y113500D02*
X7500Y123500D01*
X-69000Y-106914D02*
X-68414Y-107500D01*
X-39328D01*
X-71250Y-108250D02*
X-70000Y-109500D01*
X-73569Y-81431D02*
X-71250Y-83750D01*
X-69000Y-106914D02*
Y-75500D01*
X-71250Y-108250D02*
Y-83750D01*
X-70888Y-73612D02*
X-69000Y-75500D01*
X31165Y-63612D02*
X38554D01*
X48460Y-73518D01*
X50457Y-73612D02*
X51835D01*
X50363Y-73518D02*
X50457Y-73612D01*
X48460Y-73518D02*
X50363D01*
X-1165Y-73612D02*
X2982D01*
X3594Y-73000D01*
X4000D01*
X-54665Y-73612D02*
X-50018D01*
X-49406Y-73000D01*
X-49000D01*
X-96000Y-44500D02*
X-95500Y-45000D01*
X-102000Y-43914D02*
X-101414Y-44500D01*
X51000Y18500D02*
X56500Y13000D01*
X4996Y7000D02*
X8653Y3342D01*
X56500Y10039D02*
Y13000D01*
X58496Y7000D02*
Y8043D01*
X56500Y10039D02*
X58496Y8043D01*
X38166Y-48166D02*
X69666D01*
X-34500Y-46500D02*
X-31334Y-49666D01*
X19000Y-29000D02*
X38166Y-48166D01*
X-31334Y-49666D02*
X68166D01*
X-34500Y-46500D02*
Y-30000D01*
X-35500Y-29000D02*
X-34500Y-30000D01*
X61500Y-8000D02*
X68500Y-15000D01*
X43348Y-8000D02*
X61500D01*
X68500Y-25350D02*
Y-15000D01*
X13500Y-25850D02*
Y-8500D01*
X13000Y-8000D02*
X13500Y-8500D01*
X72000Y-29000D02*
X73000Y-30000D01*
X64918Y-29000D02*
X72000D01*
X58989Y-23563D02*
X59481D01*
X64918Y-29000D01*
X8866D02*
X19000D01*
X3992Y-24126D02*
X8866Y-29000D01*
X3500Y-24126D02*
X3992D01*
X66500Y-86000D02*
Y-75500D01*
X51835Y-68612D02*
X59612D01*
X66500Y-75500D01*
X-43896Y-29000D02*
X-35500D01*
X-49746Y-23642D02*
X-49254D01*
X-43896Y-29000D01*
X51000Y-85656D02*
X51157Y-85499D01*
X51000Y-88500D02*
Y-85656D01*
X38000Y-89414D02*
Y-88500D01*
Y-89414D02*
X38586Y-90000D01*
X49500D01*
X51000Y-88500D01*
X35500Y-86000D02*
X38000Y-88500D01*
X2888Y-78612D02*
X4000Y-77500D01*
X-1165Y-78612D02*
X2888D01*
X-22029Y-68806D02*
X-21835Y-68612D01*
X-25806Y-68806D02*
X-22029D01*
X-26000Y-69000D02*
X-25806Y-68806D01*
X-54665Y-78612D02*
X-50018D01*
X-49406Y-78000D01*
X-49000D01*
X51157Y-84699D02*
Y-79195D01*
X68000Y-25350D02*
X68500Y-25850D01*
X-95500Y-84000D02*
X-89500D01*
X-85500Y-80000D02*
Y-65000D01*
X-89500Y-84000D02*
X-85500Y-80000D01*
X-95500Y-74000D02*
X-90500D01*
X-88190Y-71690D01*
Y-63690D01*
X-95500Y-64000D02*
X-92850Y-61350D01*
X-90850D01*
X-88500Y-59000D01*
X-80500Y-99879D02*
Y-76000D01*
X-95500Y-104000D02*
X-84621D01*
X-80500Y-99879D01*
X-94850Y-113350D02*
X-89850D01*
X-77500Y-101000D02*
Y-79781D01*
X-89850Y-113350D02*
X-77500Y-101000D01*
X-95500Y-114000D02*
X-94850Y-113350D01*
X-48504Y7000D02*
Y11004D01*
X-44504Y3000D02*
X-33500D01*
X-48504Y7000D02*
X-44504Y3000D01*
X8653Y3342D02*
X20500D01*
X21287Y2555D02*
X29500D01*
X20500Y3342D02*
X21287Y2555D01*
X20500Y8658D02*
X21287Y9445D01*
X-26542Y8315D02*
X-25412Y9445D01*
X-33055Y2555D02*
X-25412D01*
X-33500Y3000D02*
X-33055Y2555D01*
X68500Y-37150D02*
Y-32150D01*
X63650Y-42000D02*
X68500Y-37150D01*
X46500Y-42000D02*
X57350D01*
X44500Y-44000D02*
X46500Y-42000D01*
X8650Y-41000D02*
X13500Y-36150D01*
Y-32150D01*
X-9500Y-41000D02*
X2350D01*
X-10473D02*
X-9500D01*
X-10989Y-40484D02*
X-10473Y-41000D01*
X-43350D02*
X-39500Y-37150D01*
Y-32150D01*
X-61500Y-41000D02*
X-49650D01*
X-62500Y-40000D02*
X-61500Y-41000D01*
X-2543Y-73612D02*
X-1165D01*
X-7888D02*
X-2543D01*
X-21835Y-63612D02*
X-21447Y-64000D01*
X-17500D01*
X-7888Y-73612D01*
X-21447Y-69000D02*
X-16500D01*
X-10500Y-75000D01*
Y-89000D02*
Y-75000D01*
X-21835Y-68612D02*
X-21447Y-69000D01*
X-9500Y-90000D02*
X-2500D01*
X-10500Y-89000D02*
X-9500Y-90000D01*
X-1843Y-89342D02*
Y-85499D01*
X-2500Y-90000D02*
X-1843Y-89342D01*
X11500Y-108000D02*
X25500Y-94000D01*
X-14414Y-110086D02*
X12414D01*
X-16000Y-105500D02*
X-13500Y-108000D01*
X11500D01*
X-18500Y-106000D02*
X-14414Y-110086D01*
X12414D02*
X27000Y-95500D01*
X-1165Y-63612D02*
X12661D01*
X65766D02*
X66500Y-64346D01*
X45842Y-78226D02*
X50457Y-73612D01*
X31165D02*
Y-68612D01*
X30777Y-79000D02*
X31165Y-78612D01*
X28500Y-79000D02*
X30777D01*
X27000Y-95500D02*
Y-95328D01*
X27500Y-94828D01*
Y-80000D01*
X28500Y-79000D01*
X25500Y-94000D02*
Y-75500D01*
X27388Y-73612D01*
X-16000Y-105500D02*
Y-75000D01*
X-17388Y-73612D02*
X-16000Y-75000D01*
X-21835Y-78612D02*
X-20457D01*
X-18500Y-80569D01*
Y-106000D02*
Y-80569D01*
X27388Y-73612D02*
X31165D01*
X-21835D02*
X-17388D01*
X-22222Y-79000D02*
X-21835Y-78612D01*
X-24500Y-79000D02*
X-22222D01*
X-25500Y-96500D02*
Y-80000D01*
X-24500Y-79000D01*
X-27500Y-95672D02*
Y-75000D01*
X-39328Y-107500D02*
X-27500Y-95672D01*
X-70000Y-109500D02*
X-38500D01*
X-25500Y-96500D01*
X-74152Y-78612D02*
X-73569Y-79195D01*
Y-81431D02*
Y-79195D01*
X-78499Y-73999D02*
X-75221D01*
X-74835Y-73612D01*
X-70888D01*
X-75335D02*
X-74835D01*
X-26112D02*
X-21835D01*
X-27500Y-75000D02*
X-26112Y-73612D01*
X-21835Y-63612D02*
X-21723Y-63500D01*
X-7158Y-78226D02*
X-2543Y-73612D01*
X-7158Y-85499D02*
Y-78226D01*
X45842Y-85499D02*
Y-78226D01*
X-77295Y-79576D02*
Y-79195D01*
X-76713Y-78612D02*
X-74152D01*
X-80500Y-76000D02*
X-78499Y-73999D01*
X-77500Y-79781D02*
X-77295Y-79576D01*
Y-79195D02*
X-76713Y-78612D01*
X60800Y-62747D02*
X64540D01*
X60800Y-84400D02*
X61446D01*
X51835Y-63612D02*
X65766D01*
X51740Y-78612D02*
X51835D01*
X51157Y-79195D02*
X51740Y-78612D01*
X7800Y-62747D02*
X11540D01*
X6112Y-68612D02*
X13500Y-76000D01*
Y-86000D02*
Y-76000D01*
X-1165Y-68612D02*
X6112D01*
X-1260Y-78612D02*
X-1165D01*
X-1843Y-79195D02*
X-1260Y-78612D01*
X-1843Y-85499D02*
Y-79195D01*
X-56043Y-73612D02*
X-54665D01*
X-64388D02*
X-56043D01*
X-75335Y-68612D02*
X-69388D01*
X-64388Y-73612D01*
X-75335Y-68612D02*
Y-63612D01*
X-60658Y-85499D02*
Y-78226D01*
X-56043Y-73612D01*
X-55343Y-85499D02*
Y-79195D01*
X-54760Y-78612D01*
X-54665D01*
X-45888Y-68612D02*
X-40000Y-74500D01*
X-54665Y-68612D02*
X-45888D01*
X-40000Y-86000D02*
Y-74500D01*
X-54665Y-63612D02*
X-40734D01*
X7846Y92331D02*
X7846D01*
X6476Y88697D02*
X7500Y87673D01*
X-5500Y76500D02*
X1201D01*
X-3500Y111716D02*
X2543Y105673D01*
X-3500Y85086D02*
Y111716D01*
X-4685Y84500D02*
X-4086D01*
X-3500Y85086D01*
X-11799Y76500D02*
Y77386D01*
X-4685Y84500D01*
X-45700Y-84400D02*
X-45054D01*
X2937Y-23563D02*
X3500Y-24126D01*
X57142Y-32516D02*
X57500Y-32874D01*
X16500Y104500D02*
X17673Y103327D01*
X-11476Y88697D02*
Y90961D01*
X15567Y98252D02*
X16500Y99185D01*
X6476Y90961D02*
X7846Y92331D01*
X6476Y88697D02*
Y90961D01*
X15327Y105673D02*
X16500Y104500D01*
X2543Y105673D02*
X15327D01*
D65*
X-14500Y-33516D02*
Y-27800D01*
X-66917Y-33031D02*
X-66315Y-32429D01*
Y-28000D01*
X41000Y-19955D02*
X41028Y-19928D01*
X40760Y-27240D02*
X41000Y-27000D01*
X40760Y-32516D02*
Y-27240D01*
X-25000Y95894D02*
Y107000D01*
Y95894D02*
X-17803Y88697D01*
X-11476D01*
X-28752Y77748D02*
X-17803Y88697D01*
X-37500Y77000D02*
X-36752Y77748D01*
X-28752D01*
X-25000Y117433D02*
X-6433D01*
X-2500Y113500D01*
X-66713Y121031D02*
X-26630D01*
X-25000Y119402D01*
Y117433D02*
Y119402D01*
X-62500Y-45000D02*
Y-40000D01*
X-9500Y-45000D02*
Y-41000D01*
X44500Y-44000D02*
Y-39484D01*
X-59504Y82000D02*
X-58657Y81154D01*
X-49654D01*
X-46248Y77748D01*
X-38248D02*
X-37500Y77000D01*
X-46248Y77748D02*
X-38248D01*
X-66713Y97409D02*
X-46138D01*
X-38248Y89520D01*
X-37500D01*
X-77496Y82000D02*
X-76653D01*
X-66744Y121000D02*
X-66713Y121031D01*
X-71500Y121000D02*
X-66744D01*
X-77500Y82846D02*
Y115000D01*
X-71500Y121000D01*
X-76653Y82000D02*
X-76248D01*
X-77500Y82846D02*
X-76653Y82000D01*
X-58657Y58000D02*
Y81154D01*
X-60500Y82000D02*
X-59504D01*
X-78342Y81154D02*
X-77496Y82000D01*
X-78342Y58000D02*
Y81154D01*
D66*
X-37156Y-60393D02*
X-32762Y-56000D01*
X-37156Y-63451D02*
Y-60393D01*
X-38051Y-64346D02*
X-37156Y-63451D01*
X-40000Y-64346D02*
X-38051D01*
X-71607Y-56000D02*
X-32762D01*
X-58657Y43343D02*
Y58000D01*
X-76000Y-51607D02*
Y26000D01*
X-58657Y43343D01*
X-76000Y-51607D02*
X-71607Y-56000D01*
X66500Y-86063D02*
Y-86000D01*
X59884Y-92679D02*
X66500Y-86063D01*
X59884Y-99417D02*
Y-92679D01*
X59500Y-99801D02*
X59884Y-99417D01*
X11551Y-86000D02*
X13500D01*
X10655Y-86896D02*
X11551Y-86000D01*
X10655Y-88845D02*
Y-86896D01*
X6384Y-93116D02*
X10655Y-88845D01*
X6384Y-99417D02*
Y-93116D01*
X6000Y-99801D02*
X6384Y-99417D01*
X-32762Y-56000D02*
X13000D01*
Y-63846D02*
Y-56000D01*
X60660D01*
X66500Y-61839D01*
Y-64346D02*
Y-61839D01*
X13000Y-63846D02*
X13500Y-64346D01*
X-40000Y-86551D02*
Y-86000D01*
X-47500Y-94051D02*
X-40000Y-86551D01*
X-47500Y-99801D02*
Y-94051D01*
D67*
X-4846Y-8000D02*
X13000D01*
X-39500D02*
X-4846D01*
X-53355D02*
X-39500D01*
X13000D02*
X43348D01*
X-4846Y-7852D02*
Y7000D01*
X43348Y-8000D02*
X48654Y-2694D01*
X-58346Y-3009D02*
X-53355Y-8000D01*
X-58346Y-3009D02*
Y7000D01*
X48654Y-2694D02*
Y7000D01*
X-95500Y-15000D02*
Y-14848D01*
D68*
X93500Y76000D02*
D03*
Y86000D02*
D03*
Y96000D02*
D03*
Y106000D02*
D03*
Y116000D02*
D03*
D69*
Y126000D02*
D03*
D70*
X-95500Y-25000D02*
D03*
Y-5000D02*
D03*
Y15000D02*
D03*
Y5000D02*
D03*
Y-15000D02*
D03*
Y-35000D02*
D03*
Y-45000D02*
D03*
Y-94000D02*
D03*
Y-74000D02*
D03*
Y-84000D02*
D03*
Y-104000D02*
D03*
Y-114000D02*
D03*
X93500Y-63000D02*
D03*
Y-83000D02*
D03*
Y-103000D02*
D03*
Y-93000D02*
D03*
Y-73000D02*
D03*
Y-53000D02*
D03*
Y-43000D02*
D03*
Y-28000D02*
D03*
Y-18000D02*
D03*
Y12000D02*
D03*
Y32000D02*
D03*
Y52000D02*
D03*
Y42000D02*
D03*
Y22000D02*
D03*
Y2000D02*
D03*
Y-8000D02*
D03*
D71*
X-95500Y25000D02*
D03*
Y-64000D02*
D03*
X93500Y-113000D02*
D03*
Y62000D02*
D03*
D72*
X-47500Y-99801D02*
D03*
X6000D02*
D03*
X59500D02*
D03*
D73*
X-62500D02*
D03*
X-9000D02*
D03*
X44500D02*
D03*
D74*
X48654Y7000D02*
D03*
X-58346D02*
D03*
X-4846D02*
D03*
D75*
X58496D02*
D03*
X-48504D02*
D03*
X4996D02*
D03*
D76*
X-85216Y109221D02*
D03*
D77*
X-66713Y121031D02*
D03*
Y97409D02*
D03*
D78*
X41000Y-26700D02*
D03*
X-14500Y-27800D02*
D03*
X-62500Y-45000D02*
D03*
X-66315Y-28000D02*
D03*
X44500Y-44000D02*
D03*
X-9500Y-45000D02*
D03*
D79*
X57100Y-73500D02*
D03*
X77894Y9445D02*
D03*
X-29000Y8500D02*
D03*
X24500Y9500D02*
D03*
X-57500Y13000D02*
D03*
X-67500Y18500D02*
D03*
X-63500Y15000D02*
D03*
X-84000Y14750D02*
D03*
Y19250D02*
D03*
Y10000D02*
D03*
X68000Y18500D02*
D03*
X4000Y-73000D02*
D03*
X-49000D02*
D03*
X-89000Y69000D02*
D03*
X-48000D02*
D03*
X-39500Y-25850D02*
D03*
X35500Y-86000D02*
D03*
X4000Y-77500D02*
D03*
X-26000Y-69000D02*
D03*
X-49000Y-78000D02*
D03*
M02*
