M48
;Layer_Color=9474304
;FILE_FORMAT=2:5
INCH,TZ
;TYPE=PLATED
T1F00S00C0.01500
T2F00S00C0.02800
T3F00S00C0.03937
T5F00S00C0.04094
T6F00S00C0.04331
T7F00S00C0.05512
%
T01
X57100Y-73500
X35500Y-86000
X4000Y-77500
Y-73000
X-26000Y-69000
X-49000Y-73000
Y-78000
X-39500Y-25850
X-29000Y8500
X-57500Y13000
X-63500Y15000
X-67500Y18500
X-84000Y19250
Y14750
Y10000
X-89000Y69000
X-48000
X24500Y9500
X68000Y18500
X77894Y9445
T02
X44500Y-44000
X41000Y-26700
X-14500Y-27800
X-9500Y-45000
X-62500
X-66315Y-28000
T03
X-58346Y7000
X-48504
X-4846
X4996
X48654
X58496
T05
X93500Y76000
Y86000
Y96000
Y106000
Y116000
Y126000
T06
X93500Y-113000
Y-103000
Y-93000
Y-83000
Y-73000
Y-63000
Y-53000
Y-43000
Y-28000
Y-18000
X-95500Y-15000
Y-25000
Y-35000
Y-45000
Y-64000
Y-74000
Y-84000
Y-94000
Y-104000
Y-114000
Y-5000
Y5000
Y15000
Y25000
X93500Y22000
Y12000
Y2000
Y-8000
Y32000
Y42000
Y52000
Y62000
T07
X44500Y-99801
X59500
X6000
X-9000
X-47500
X-62500
M30
