G04*
G04 #@! TF.GenerationSoftware,Altium Limited,Altium Designer,20.0.9 (164)*
G04*
G04 Layer_Color=16711935*
%FSLAX25Y25*%
%MOIN*%
G70*
G01*
G75*
%ADD50C,0.06902*%
%ADD51R,0.06902X0.06902*%
%ADD52C,0.07099*%
%ADD53R,0.07099X0.07099*%
%ADD54R,0.09068X0.09068*%
%ADD55C,0.09068*%
%ADD56R,0.06706X0.06706*%
%ADD57C,0.06706*%
%ADD58R,0.06706X0.09068*%
%ADD59R,0.09068X0.06706*%
%ADD60C,0.05800*%
%ADD61C,0.03300*%
%ADD81R,0.05524X0.06509*%
D50*
X93500Y76000D02*
D03*
Y86000D02*
D03*
Y96000D02*
D03*
Y106000D02*
D03*
Y116000D02*
D03*
D51*
Y126000D02*
D03*
D52*
X-95500Y-25000D02*
D03*
Y-5000D02*
D03*
Y15000D02*
D03*
Y5000D02*
D03*
Y-15000D02*
D03*
Y-35000D02*
D03*
Y-45000D02*
D03*
Y-94000D02*
D03*
Y-74000D02*
D03*
Y-84000D02*
D03*
Y-104000D02*
D03*
Y-114000D02*
D03*
X93500Y-63000D02*
D03*
Y-83000D02*
D03*
Y-103000D02*
D03*
Y-93000D02*
D03*
Y-73000D02*
D03*
Y-53000D02*
D03*
Y-43000D02*
D03*
Y-28000D02*
D03*
Y-18000D02*
D03*
Y12000D02*
D03*
Y32000D02*
D03*
Y52000D02*
D03*
Y42000D02*
D03*
Y22000D02*
D03*
Y2000D02*
D03*
Y-8000D02*
D03*
D53*
X-95500Y25000D02*
D03*
Y-64000D02*
D03*
X93500Y-113000D02*
D03*
Y62000D02*
D03*
D54*
X-47500Y-99801D02*
D03*
X6000D02*
D03*
X59500D02*
D03*
D55*
X-62500D02*
D03*
X-9000D02*
D03*
X44500D02*
D03*
D56*
X48654Y7000D02*
D03*
X-58346D02*
D03*
X-4846D02*
D03*
D57*
X58496D02*
D03*
X-48504D02*
D03*
X4996D02*
D03*
D58*
X-85216Y109221D02*
D03*
D59*
X-66713Y121031D02*
D03*
Y97409D02*
D03*
D60*
X41000Y-26700D02*
D03*
X-14500Y-27800D02*
D03*
X-62500Y-45000D02*
D03*
X-66315Y-28000D02*
D03*
X44500Y-44000D02*
D03*
X-9500Y-45000D02*
D03*
D61*
X57100Y-73500D02*
D03*
X77894Y9445D02*
D03*
X-29000Y8500D02*
D03*
X24500Y9500D02*
D03*
X-57500Y13000D02*
D03*
X-67500Y18500D02*
D03*
X-63500Y15000D02*
D03*
X-84000Y14750D02*
D03*
Y19250D02*
D03*
Y10000D02*
D03*
X68000Y18500D02*
D03*
X4000Y-73000D02*
D03*
X-49000D02*
D03*
X-89000Y69000D02*
D03*
X-48000D02*
D03*
X-39500Y-25850D02*
D03*
X35500Y-86000D02*
D03*
X4000Y-77500D02*
D03*
X-26000Y-69000D02*
D03*
X-49000Y-78000D02*
D03*
D81*
X-76095Y-114540D02*
D03*
X-83969D02*
D03*
X-76095Y-103500D02*
D03*
X-83969D02*
D03*
M02*
