G04*
G04 #@! TF.GenerationSoftware,Altium Limited,Altium Designer,20.0.9 (164)*
G04*
G04 Layer_Color=255*
%FSLAX25Y25*%
%MOIN*%
G70*
G01*
G75*
%ADD68C,0.06299*%
%ADD69R,0.06299X0.06299*%
%ADD70C,0.06102*%
%ADD71R,0.06102X0.06102*%
%ADD72R,0.08268X0.08268*%
%ADD73C,0.08268*%
%ADD74R,0.05906X0.05906*%
%ADD75C,0.05906*%
%ADD76R,0.05906X0.08268*%
%ADD77R,0.08268X0.05906*%
%ADD80R,0.04724X0.05709*%
D68*
X93500Y-9000D02*
D03*
Y1000D02*
D03*
Y21000D02*
D03*
Y41000D02*
D03*
Y51000D02*
D03*
Y31000D02*
D03*
Y11000D02*
D03*
Y-19000D02*
D03*
Y-29000D02*
D03*
X-95500Y-25000D02*
D03*
Y-5000D02*
D03*
Y15000D02*
D03*
Y5000D02*
D03*
Y-15000D02*
D03*
Y-35000D02*
D03*
Y-45000D02*
D03*
Y-94000D02*
D03*
Y-74000D02*
D03*
Y-84000D02*
D03*
Y-104000D02*
D03*
Y-114000D02*
D03*
X93500Y-64000D02*
D03*
Y-84000D02*
D03*
Y-104000D02*
D03*
Y-94000D02*
D03*
Y-74000D02*
D03*
Y-54000D02*
D03*
Y-44000D02*
D03*
D69*
Y61000D02*
D03*
X-95500Y25000D02*
D03*
Y-64000D02*
D03*
X93500Y-114000D02*
D03*
D70*
Y76000D02*
D03*
Y86000D02*
D03*
Y96000D02*
D03*
Y106000D02*
D03*
Y116000D02*
D03*
D71*
Y126000D02*
D03*
D72*
X-47500Y-99801D02*
D03*
X6000D02*
D03*
X59500D02*
D03*
D73*
X-62500D02*
D03*
X-9000D02*
D03*
X44500D02*
D03*
D74*
X48654Y7000D02*
D03*
X-58346D02*
D03*
X-4846D02*
D03*
D75*
X58496D02*
D03*
X-48504D02*
D03*
X4996D02*
D03*
D76*
X-85216Y109221D02*
D03*
D77*
X-66713Y121031D02*
D03*
Y97409D02*
D03*
D80*
X-76095Y-114540D02*
D03*
X-83969D02*
D03*
X-76095Y-103500D02*
D03*
X-83969D02*
D03*
M02*
