G04*
G04 #@! TF.GenerationSoftware,Altium Limited,Altium Designer,20.0.9 (164)*
G04*
G04 Layer_Color=8388736*
%FSLAX25Y25*%
%MOIN*%
G70*
G01*
G75*
%ADD33R,0.04540X0.04147*%
%ADD34R,0.06509X0.05328*%
%ADD35R,0.06509X0.05524*%
%ADD36R,0.03958X0.04627*%
%ADD37R,0.04147X0.04540*%
G04:AMPARAMS|DCode=38|XSize=29.65mil|YSize=57.21mil|CornerRadius=5.95mil|HoleSize=0mil|Usage=FLASHONLY|Rotation=90.000|XOffset=0mil|YOffset=0mil|HoleType=Round|Shape=RoundedRectangle|*
%AMROUNDEDRECTD38*
21,1,0.02965,0.04532,0,0,90.0*
21,1,0.01776,0.05721,0,0,90.0*
1,1,0.01190,0.02266,0.00888*
1,1,0.01190,0.02266,-0.00888*
1,1,0.01190,-0.02266,-0.00888*
1,1,0.01190,-0.02266,0.00888*
%
%ADD38ROUNDEDRECTD38*%
%ADD39R,0.13989X0.06509*%
%ADD40R,0.10642X0.07493*%
%ADD41R,0.13398X0.07099*%
%ADD42R,0.08792X0.07296*%
%ADD43R,0.06115X0.10052*%
%ADD44R,0.22453X0.26391*%
%ADD45R,0.04540X0.09068*%
%ADD46R,0.03950X0.03950*%
%ADD47R,0.03950X0.05721*%
%ADD48R,0.05721X0.03950*%
%ADD49R,0.05328X0.06509*%
%ADD50C,0.07099*%
%ADD51R,0.07099X0.07099*%
%ADD52C,0.06902*%
%ADD53R,0.06902X0.06902*%
%ADD54R,0.09068X0.09068*%
%ADD55C,0.09068*%
%ADD56R,0.06706X0.06706*%
%ADD57C,0.06706*%
%ADD58R,0.06706X0.09068*%
%ADD59R,0.09068X0.06706*%
%ADD60C,0.05800*%
%ADD61C,0.03300*%
D33*
X73000Y3342D02*
D03*
Y8658D02*
D03*
X16500Y99185D02*
D03*
Y104500D02*
D03*
X-34000Y3342D02*
D03*
Y8658D02*
D03*
X20000Y3342D02*
D03*
Y8658D02*
D03*
D34*
X84000Y2555D02*
D03*
Y9445D02*
D03*
X-23500Y2555D02*
D03*
Y9445D02*
D03*
X30000Y2555D02*
D03*
Y9445D02*
D03*
D35*
X81500Y86437D02*
D03*
Y78563D02*
D03*
Y96563D02*
D03*
Y104437D02*
D03*
X3500Y-24126D02*
D03*
Y-32000D02*
D03*
X-49688Y-23642D02*
D03*
Y-31516D02*
D03*
X58989Y-31437D02*
D03*
Y-23563D02*
D03*
D36*
X48240Y-32516D02*
D03*
X40760D02*
D03*
X44500Y-39484D02*
D03*
X-59437Y-33031D02*
D03*
X-66917D02*
D03*
X-63177Y-40000D02*
D03*
X-7249Y-33516D02*
D03*
X-14729D02*
D03*
X-10989Y-40484D02*
D03*
D37*
X51157Y-85499D02*
D03*
X45842D02*
D03*
X-1843D02*
D03*
X-7158D02*
D03*
X-60658Y-85500D02*
D03*
X-55343D02*
D03*
D38*
X51835Y-78612D02*
D03*
Y-73612D02*
D03*
Y-68612D02*
D03*
Y-63612D02*
D03*
X31165Y-78612D02*
D03*
Y-73612D02*
D03*
Y-68612D02*
D03*
Y-63612D02*
D03*
X-1165Y-78612D02*
D03*
Y-73612D02*
D03*
Y-68612D02*
D03*
Y-63612D02*
D03*
X-21835Y-78612D02*
D03*
Y-73612D02*
D03*
Y-68612D02*
D03*
Y-63612D02*
D03*
X-54665Y-78612D02*
D03*
Y-73612D02*
D03*
Y-68612D02*
D03*
Y-63612D02*
D03*
X-75335Y-78612D02*
D03*
Y-73612D02*
D03*
Y-68612D02*
D03*
Y-63612D02*
D03*
D39*
X13500Y-64346D02*
D03*
Y-86000D02*
D03*
X-40000Y-64346D02*
D03*
Y-86000D02*
D03*
X66500Y-64346D02*
D03*
Y-86000D02*
D03*
D40*
X-76248Y82000D02*
D03*
X-60500D02*
D03*
D41*
X-78342Y58000D02*
D03*
X-58657D02*
D03*
D42*
X-37500Y89520D02*
D03*
Y77000D02*
D03*
D43*
X-25000Y107000D02*
D03*
Y117433D02*
D03*
D44*
X-2500Y113500D02*
D03*
D45*
X6476Y88697D02*
D03*
X-11476D02*
D03*
D46*
X7500Y76500D02*
D03*
X1201D02*
D03*
X-43350Y-41000D02*
D03*
X-49650D02*
D03*
X2350D02*
D03*
X8650D02*
D03*
X57350Y-42000D02*
D03*
X63650D02*
D03*
D47*
X-5500Y76500D02*
D03*
X-11799D02*
D03*
D48*
X68500Y-25850D02*
D03*
Y-32150D02*
D03*
X-39500D02*
D03*
Y-25850D02*
D03*
X13500D02*
D03*
Y-32150D02*
D03*
D49*
X-59055Y-21000D02*
D03*
X-65945D02*
D03*
X-7055Y-21100D02*
D03*
X-13945D02*
D03*
X41055Y-19900D02*
D03*
X47945D02*
D03*
D50*
X93500Y-9000D02*
D03*
Y1000D02*
D03*
Y21000D02*
D03*
Y41000D02*
D03*
Y51000D02*
D03*
Y31000D02*
D03*
Y11000D02*
D03*
Y-19000D02*
D03*
Y-29000D02*
D03*
X-95500Y-25000D02*
D03*
Y-5000D02*
D03*
Y15000D02*
D03*
Y5000D02*
D03*
Y-15000D02*
D03*
Y-35000D02*
D03*
Y-45000D02*
D03*
Y-94000D02*
D03*
Y-74000D02*
D03*
Y-84000D02*
D03*
Y-104000D02*
D03*
Y-114000D02*
D03*
X93500Y-64000D02*
D03*
Y-84000D02*
D03*
Y-104000D02*
D03*
Y-94000D02*
D03*
Y-74000D02*
D03*
Y-54000D02*
D03*
Y-44000D02*
D03*
D51*
Y61000D02*
D03*
X-95500Y25000D02*
D03*
Y-64000D02*
D03*
X93500Y-114000D02*
D03*
D52*
Y76000D02*
D03*
Y86000D02*
D03*
Y96000D02*
D03*
Y106000D02*
D03*
Y116000D02*
D03*
D53*
Y126000D02*
D03*
D54*
X-47500Y-99801D02*
D03*
X6000D02*
D03*
X59500D02*
D03*
D55*
X-62500D02*
D03*
X-9000D02*
D03*
X44500D02*
D03*
D56*
X48654Y7000D02*
D03*
X-58346D02*
D03*
X-4846D02*
D03*
D57*
X58496D02*
D03*
X-48504D02*
D03*
X4996D02*
D03*
D58*
X-85216Y109221D02*
D03*
D59*
X-66713Y121031D02*
D03*
Y97409D02*
D03*
D60*
X41000Y-26700D02*
D03*
X-14500Y-27800D02*
D03*
X-62500Y-45000D02*
D03*
X-66315Y-28000D02*
D03*
X44500Y-44000D02*
D03*
X-9500Y-45000D02*
D03*
D61*
X57100Y-73500D02*
D03*
X77894Y9445D02*
D03*
X-29000Y8500D02*
D03*
X24500Y9500D02*
D03*
X-57500Y13000D02*
D03*
X-67500Y18500D02*
D03*
X-63500Y15000D02*
D03*
X-84000Y14750D02*
D03*
Y19250D02*
D03*
Y10000D02*
D03*
X68000Y18500D02*
D03*
X4000Y-73000D02*
D03*
X-49000D02*
D03*
X-89000Y69000D02*
D03*
X-48000D02*
D03*
X-39500Y-25850D02*
D03*
X35500Y-86000D02*
D03*
X4000Y-77500D02*
D03*
X-26000Y-69000D02*
D03*
X-49000Y-78000D02*
D03*
M02*
