G04*
G04 #@! TF.GenerationSoftware,Altium Limited,Altium Designer,20.0.9 (164)*
G04*
G04 Layer_Physical_Order=2*
G04 Layer_Color=16711680*
%FSLAX25Y25*%
%MOIN*%
G70*
G01*
G75*
%ADD62C,0.02000*%
%ADD63C,0.01000*%
%ADD65C,0.05000*%
%ADD67C,0.03000*%
%ADD68C,0.06299*%
%ADD69R,0.06299X0.06299*%
%ADD70C,0.06102*%
%ADD71R,0.06102X0.06102*%
%ADD72R,0.08268X0.08268*%
%ADD73C,0.08268*%
%ADD74R,0.05906X0.05906*%
%ADD75C,0.05906*%
%ADD76R,0.05906X0.08268*%
%ADD77R,0.08268X0.05906*%
%ADD78C,0.05000*%
%ADD79C,0.02500*%
%ADD80R,0.04724X0.05709*%
G36*
X101613Y129804D02*
Y-115804D01*
X96304Y-121113D01*
X87900D01*
X87900Y-121113D01*
X87153Y-121212D01*
X86457Y-121500D01*
X85859Y-121959D01*
X85859Y-121959D01*
X76704Y-131113D01*
X-78304Y-131113D01*
X-87459Y-121959D01*
X-87459Y-121959D01*
X-88056Y-121500D01*
X-88753Y-121212D01*
X-89500Y-121113D01*
X-101004D01*
X-102613Y-119504D01*
Y130804D01*
X-100304Y133113D01*
X98304Y133113D01*
X101613Y129804D01*
D02*
G37*
%LPC*%
G36*
X97051Y129551D02*
X89949D01*
Y122449D01*
X97051D01*
Y129551D01*
D02*
G37*
G36*
X-61579Y124984D02*
X-66213D01*
Y121531D01*
X-61579D01*
Y124984D01*
D02*
G37*
G36*
X-67213D02*
X-71846D01*
Y121531D01*
X-67213D01*
Y124984D01*
D02*
G37*
G36*
X-61579Y120531D02*
X-66213D01*
Y117079D01*
X-61579D01*
Y120531D01*
D02*
G37*
G36*
X-67213D02*
X-71846D01*
Y117079D01*
X-67213D01*
Y120531D01*
D02*
G37*
G36*
X93500Y119582D02*
X92573Y119460D01*
X91709Y119102D01*
X90967Y118533D01*
X90398Y117791D01*
X90040Y116927D01*
X89918Y116000D01*
X90040Y115073D01*
X90398Y114209D01*
X90967Y113467D01*
X91709Y112898D01*
X92573Y112540D01*
X93500Y112418D01*
X94427Y112540D01*
X95291Y112898D01*
X96033Y113467D01*
X96602Y114209D01*
X96960Y115073D01*
X97082Y116000D01*
X96960Y116927D01*
X96602Y117791D01*
X96033Y118533D01*
X95291Y119102D01*
X94427Y119460D01*
X93500Y119582D01*
D02*
G37*
G36*
X94000Y110020D02*
Y106500D01*
X97520D01*
X97447Y107058D01*
X97039Y108043D01*
X96389Y108889D01*
X95543Y109539D01*
X94558Y109947D01*
X94000Y110020D01*
D02*
G37*
G36*
X93000D02*
X92442Y109947D01*
X91457Y109539D01*
X90611Y108889D01*
X89961Y108043D01*
X89553Y107058D01*
X89480Y106500D01*
X93000D01*
Y110020D01*
D02*
G37*
G36*
X-81764Y113854D02*
X-88669D01*
Y104587D01*
X-81764D01*
Y113854D01*
D02*
G37*
G36*
X97520Y105500D02*
X94000D01*
Y101980D01*
X94558Y102053D01*
X95543Y102461D01*
X96389Y103111D01*
X97039Y103957D01*
X97447Y104942D01*
X97520Y105500D01*
D02*
G37*
G36*
X93000D02*
X89480D01*
X89553Y104942D01*
X89961Y103957D01*
X90611Y103111D01*
X91457Y102461D01*
X92442Y102053D01*
X93000Y101980D01*
Y105500D01*
D02*
G37*
G36*
X-62079Y100862D02*
X-71346D01*
Y93957D01*
X-62079D01*
Y100862D01*
D02*
G37*
G36*
X93500Y99582D02*
X92573Y99460D01*
X91709Y99102D01*
X90967Y98533D01*
X90398Y97791D01*
X90040Y96927D01*
X89918Y96000D01*
X90040Y95073D01*
X90398Y94209D01*
X90967Y93467D01*
X91709Y92898D01*
X92573Y92540D01*
X93500Y92418D01*
X94427Y92540D01*
X95291Y92898D01*
X96033Y93467D01*
X96602Y94209D01*
X96960Y95073D01*
X97082Y96000D01*
X96960Y96927D01*
X96602Y97791D01*
X96033Y98533D01*
X95291Y99102D01*
X94427Y99460D01*
X93500Y99582D01*
D02*
G37*
G36*
Y89582D02*
X92573Y89460D01*
X91709Y89102D01*
X90967Y88533D01*
X90398Y87791D01*
X90040Y86927D01*
X89918Y86000D01*
X90040Y85073D01*
X90398Y84209D01*
X90967Y83467D01*
X91709Y82898D01*
X92573Y82540D01*
X93500Y82418D01*
X94427Y82540D01*
X95291Y82898D01*
X96033Y83467D01*
X96602Y84209D01*
X96960Y85073D01*
X97082Y86000D01*
X96960Y86927D01*
X96602Y87791D01*
X96033Y88533D01*
X95291Y89102D01*
X94427Y89460D01*
X93500Y89582D01*
D02*
G37*
G36*
Y79582D02*
X92573Y79460D01*
X91709Y79102D01*
X90967Y78533D01*
X90398Y77791D01*
X90040Y76927D01*
X89918Y76000D01*
X90040Y75073D01*
X90398Y74209D01*
X90967Y73467D01*
X91709Y72898D01*
X92573Y72540D01*
X93500Y72418D01*
X94427Y72540D01*
X95291Y72898D01*
X96033Y73467D01*
X96602Y74209D01*
X96960Y75073D01*
X97082Y76000D01*
X96960Y76927D01*
X96602Y77791D01*
X96033Y78533D01*
X95291Y79102D01*
X94427Y79460D01*
X93500Y79582D01*
D02*
G37*
G36*
X-48000Y70784D02*
X-48683Y70648D01*
X-48861Y70529D01*
X-88139D01*
X-88317Y70648D01*
X-89000Y70784D01*
X-89683Y70648D01*
X-90262Y70262D01*
X-90649Y69683D01*
X-90784Y69000D01*
X-90649Y68317D01*
X-90262Y67738D01*
X-89683Y67352D01*
X-89000Y67216D01*
X-88317Y67352D01*
X-88139Y67471D01*
X-48861D01*
X-48683Y67352D01*
X-48000Y67216D01*
X-47317Y67352D01*
X-46738Y67738D01*
X-46352Y68317D01*
X-46216Y69000D01*
X-46352Y69683D01*
X-46738Y70262D01*
X-47317Y70648D01*
X-48000Y70784D01*
D02*
G37*
G36*
X97150Y64650D02*
X89850D01*
Y57350D01*
X97150D01*
Y64650D01*
D02*
G37*
G36*
X93500Y54681D02*
X92547Y54556D01*
X91659Y54188D01*
X90897Y53603D01*
X90312Y52841D01*
X89944Y51953D01*
X89819Y51000D01*
X89944Y50047D01*
X90312Y49160D01*
X90897Y48397D01*
X91659Y47812D01*
X92547Y47444D01*
X93500Y47319D01*
X94453Y47444D01*
X95341Y47812D01*
X96103Y48397D01*
X96688Y49160D01*
X97056Y50047D01*
X97181Y51000D01*
X97056Y51953D01*
X96688Y52841D01*
X96103Y53603D01*
X95341Y54188D01*
X94453Y54556D01*
X93500Y54681D01*
D02*
G37*
G36*
Y44681D02*
X92547Y44556D01*
X91659Y44188D01*
X90897Y43603D01*
X90312Y42840D01*
X89944Y41953D01*
X89819Y41000D01*
X89944Y40047D01*
X90312Y39160D01*
X90897Y38397D01*
X91659Y37812D01*
X92547Y37444D01*
X93500Y37319D01*
X94453Y37444D01*
X95341Y37812D01*
X96103Y38397D01*
X96688Y39160D01*
X97056Y40047D01*
X97181Y41000D01*
X97056Y41953D01*
X96688Y42840D01*
X96103Y43603D01*
X95341Y44188D01*
X94453Y44556D01*
X93500Y44681D01*
D02*
G37*
G36*
Y34681D02*
X92547Y34556D01*
X91659Y34188D01*
X90897Y33603D01*
X90312Y32840D01*
X89944Y31953D01*
X89819Y31000D01*
X89944Y30047D01*
X90312Y29160D01*
X90897Y28397D01*
X91659Y27812D01*
X92547Y27444D01*
X93500Y27319D01*
X94453Y27444D01*
X95341Y27812D01*
X96103Y28397D01*
X96688Y29160D01*
X97056Y30047D01*
X97181Y31000D01*
X97056Y31953D01*
X96688Y32840D01*
X96103Y33603D01*
X95341Y34188D01*
X94453Y34556D01*
X93500Y34681D01*
D02*
G37*
G36*
X-91850Y28650D02*
X-99150D01*
Y21350D01*
X-91850D01*
Y28650D01*
D02*
G37*
G36*
X93500Y24681D02*
X92547Y24556D01*
X91659Y24188D01*
X90897Y23603D01*
X90312Y22840D01*
X89944Y21953D01*
X89819Y21000D01*
X89944Y20047D01*
X90312Y19160D01*
X90897Y18397D01*
X91659Y17812D01*
X92547Y17444D01*
X93500Y17319D01*
X94453Y17444D01*
X95341Y17812D01*
X96103Y18397D01*
X96688Y19160D01*
X97056Y20047D01*
X97181Y21000D01*
X97056Y21953D01*
X96688Y22840D01*
X96103Y23603D01*
X95341Y24188D01*
X94453Y24556D01*
X93500Y24681D01*
D02*
G37*
G36*
X68000Y20284D02*
X67317Y20148D01*
X67139Y20029D01*
X60154D01*
X59568Y19913D01*
X59072Y19581D01*
X49943Y10453D01*
X45201D01*
Y3547D01*
X52106D01*
Y8290D01*
X60787Y16971D01*
X67139D01*
X67317Y16851D01*
X68000Y16716D01*
X68683Y16851D01*
X69262Y17238D01*
X69648Y17817D01*
X69784Y18500D01*
X69648Y19183D01*
X69262Y19762D01*
X68683Y20148D01*
X68000Y20284D01*
D02*
G37*
G36*
X-84000Y21034D02*
X-84683Y20899D01*
X-85262Y20512D01*
X-85649Y19933D01*
X-85784Y19250D01*
X-85649Y18567D01*
X-85262Y17988D01*
X-84683Y17602D01*
X-84000Y17466D01*
X-83588Y17548D01*
X-83250Y17480D01*
X-68923D01*
X-68762Y17238D01*
X-68183Y16851D01*
X-67500Y16716D01*
X-66817Y16851D01*
X-66238Y17238D01*
X-65851Y17817D01*
X-65716Y18500D01*
X-65851Y19183D01*
X-66238Y19762D01*
X-66817Y20148D01*
X-67500Y20284D01*
X-68183Y20148D01*
X-68762Y19762D01*
X-68923Y19520D01*
X-82269D01*
X-82351Y19933D01*
X-82738Y20512D01*
X-83317Y20899D01*
X-84000Y21034D01*
D02*
G37*
G36*
X-63500Y16784D02*
X-64183Y16648D01*
X-64762Y16262D01*
X-65091Y15770D01*
X-82577D01*
X-82738Y16012D01*
X-83317Y16398D01*
X-84000Y16534D01*
X-84683Y16398D01*
X-85262Y16012D01*
X-85649Y15433D01*
X-85784Y14750D01*
X-85649Y14067D01*
X-85262Y13488D01*
X-84683Y13102D01*
X-84000Y12966D01*
X-83317Y13102D01*
X-82738Y13488D01*
X-82577Y13730D01*
X-64859D01*
X-64660Y13520D01*
X-64876Y13020D01*
X-82000D01*
X-82390Y12942D01*
X-82721Y12721D01*
X-83714Y11727D01*
X-84000Y11784D01*
X-84683Y11648D01*
X-85262Y11262D01*
X-85649Y10683D01*
X-85784Y10000D01*
X-85649Y9317D01*
X-85262Y8738D01*
X-84683Y8352D01*
X-84000Y8216D01*
X-83317Y8352D01*
X-82738Y8738D01*
X-82351Y9317D01*
X-82216Y10000D01*
X-82272Y10286D01*
X-81578Y10980D01*
X-61406D01*
X-61016Y11058D01*
X-60685Y11279D01*
X-59984Y11980D01*
X-58923D01*
X-58762Y11738D01*
X-58183Y11351D01*
X-57500Y11216D01*
X-56817Y11351D01*
X-56238Y11738D01*
X-55852Y12317D01*
X-55716Y13000D01*
X-55852Y13683D01*
X-56238Y14262D01*
X-56817Y14649D01*
X-57500Y14784D01*
X-58183Y14649D01*
X-58762Y14262D01*
X-58923Y14020D01*
X-60406D01*
X-60796Y13942D01*
X-61127Y13721D01*
X-61828Y13020D01*
X-62414D01*
X-62566Y13520D01*
X-62238Y13738D01*
X-61852Y14317D01*
X-61716Y15000D01*
X-61852Y15683D01*
X-62238Y16262D01*
X-62817Y16648D01*
X-63500Y16784D01*
D02*
G37*
G36*
X-95500Y18681D02*
X-96453Y18556D01*
X-97341Y18188D01*
X-98103Y17603D01*
X-98688Y16840D01*
X-99056Y15953D01*
X-99181Y15000D01*
X-99056Y14047D01*
X-98688Y13160D01*
X-98103Y12397D01*
X-97341Y11812D01*
X-96453Y11444D01*
X-95500Y11319D01*
X-94547Y11444D01*
X-93660Y11812D01*
X-92897Y12397D01*
X-92312Y13160D01*
X-91944Y14047D01*
X-91819Y15000D01*
X-91944Y15953D01*
X-92312Y16840D01*
X-92897Y17603D01*
X-93660Y18188D01*
X-94547Y18556D01*
X-95500Y18681D01*
D02*
G37*
G36*
X25000Y11695D02*
Y10000D01*
X26695D01*
X26619Y10378D01*
X26122Y11122D01*
X25378Y11620D01*
X25000Y11695D01*
D02*
G37*
G36*
X24000D02*
X23622Y11620D01*
X22878Y11122D01*
X22380Y10378D01*
X22305Y10000D01*
X24000D01*
Y11695D01*
D02*
G37*
G36*
X78394Y11639D02*
Y9945D01*
X80088D01*
X80013Y10323D01*
X79516Y11067D01*
X78772Y11564D01*
X78394Y11639D01*
D02*
G37*
G36*
X77394D02*
X77016Y11564D01*
X76271Y11067D01*
X75774Y10323D01*
X75699Y9945D01*
X77394D01*
Y11639D01*
D02*
G37*
G36*
X-28500Y10695D02*
Y9000D01*
X-26805D01*
X-26880Y9378D01*
X-27378Y10122D01*
X-28122Y10620D01*
X-28500Y10695D01*
D02*
G37*
G36*
X-29500D02*
X-29878Y10620D01*
X-30622Y10122D01*
X-31119Y9378D01*
X-31195Y9000D01*
X-29500D01*
Y10695D01*
D02*
G37*
G36*
X93500Y14681D02*
X92547Y14556D01*
X91659Y14188D01*
X90897Y13603D01*
X90312Y12841D01*
X89944Y11953D01*
X89819Y11000D01*
X89944Y10047D01*
X90312Y9160D01*
X90897Y8397D01*
X91659Y7812D01*
X92547Y7444D01*
X93500Y7319D01*
X94453Y7444D01*
X95341Y7812D01*
X96103Y8397D01*
X96688Y9160D01*
X97056Y10047D01*
X97181Y11000D01*
X97056Y11953D01*
X96688Y12841D01*
X96103Y13603D01*
X95341Y14188D01*
X94453Y14556D01*
X93500Y14681D01*
D02*
G37*
G36*
X26695Y9000D02*
X25000D01*
Y7305D01*
X25378Y7380D01*
X26122Y7878D01*
X26619Y8622D01*
X26695Y9000D01*
D02*
G37*
G36*
X24000D02*
X22305D01*
X22380Y8622D01*
X22878Y7878D01*
X23622Y7380D01*
X24000Y7305D01*
Y9000D01*
D02*
G37*
G36*
X80088Y8945D02*
X78394D01*
Y7250D01*
X78772Y7325D01*
X79516Y7823D01*
X80013Y8567D01*
X80088Y8945D01*
D02*
G37*
G36*
X77394D02*
X75699D01*
X75774Y8567D01*
X76271Y7823D01*
X77016Y7325D01*
X77394Y7250D01*
Y8945D01*
D02*
G37*
G36*
X-26805Y8000D02*
X-28500D01*
Y6305D01*
X-28122Y6381D01*
X-27378Y6878D01*
X-26880Y7622D01*
X-26805Y8000D01*
D02*
G37*
G36*
X-29500D02*
X-31195D01*
X-31119Y7622D01*
X-30622Y6878D01*
X-29878Y6381D01*
X-29500Y6305D01*
Y8000D01*
D02*
G37*
G36*
X-1394Y10453D02*
X-8299D01*
Y3547D01*
X-1394D01*
Y10453D01*
D02*
G37*
G36*
X58496Y10482D02*
X57595Y10364D01*
X56755Y10016D01*
X56033Y9463D01*
X55480Y8741D01*
X55132Y7901D01*
X55014Y7000D01*
X55132Y6099D01*
X55480Y5259D01*
X56033Y4538D01*
X56755Y3984D01*
X57595Y3636D01*
X58496Y3517D01*
X59397Y3636D01*
X60237Y3984D01*
X60959Y4538D01*
X61512Y5259D01*
X61860Y6099D01*
X61979Y7000D01*
X61860Y7901D01*
X61512Y8741D01*
X60959Y9463D01*
X60237Y10016D01*
X59397Y10364D01*
X58496Y10482D01*
D02*
G37*
G36*
X4996D02*
X4095Y10364D01*
X3255Y10016D01*
X2534Y9463D01*
X1980Y8741D01*
X1632Y7901D01*
X1514Y7000D01*
X1632Y6099D01*
X1980Y5259D01*
X2534Y4538D01*
X3255Y3984D01*
X4095Y3636D01*
X4996Y3517D01*
X5897Y3636D01*
X6737Y3984D01*
X7459Y4538D01*
X8012Y5259D01*
X8360Y6099D01*
X8479Y7000D01*
X8360Y7901D01*
X8012Y8741D01*
X7459Y9463D01*
X6737Y10016D01*
X5897Y10364D01*
X4996Y10482D01*
D02*
G37*
G36*
X-48504D02*
X-49405Y10364D01*
X-50245Y10016D01*
X-50967Y9463D01*
X-51520Y8741D01*
X-51868Y7901D01*
X-51986Y7000D01*
X-51868Y6099D01*
X-51520Y5259D01*
X-50967Y4538D01*
X-50245Y3984D01*
X-49405Y3636D01*
X-48504Y3517D01*
X-47603Y3636D01*
X-46763Y3984D01*
X-46041Y4538D01*
X-45488Y5259D01*
X-45140Y6099D01*
X-45021Y7000D01*
X-45140Y7901D01*
X-45488Y8741D01*
X-46041Y9463D01*
X-46763Y10016D01*
X-47603Y10364D01*
X-48504Y10482D01*
D02*
G37*
G36*
X-95500Y8681D02*
X-96453Y8556D01*
X-97341Y8188D01*
X-98103Y7603D01*
X-98688Y6841D01*
X-99056Y5953D01*
X-99181Y5000D01*
X-99056Y4047D01*
X-98688Y3159D01*
X-98103Y2397D01*
X-97341Y1812D01*
X-96453Y1444D01*
X-95500Y1319D01*
X-94547Y1444D01*
X-93660Y1812D01*
X-92897Y2397D01*
X-92312Y3159D01*
X-91944Y4047D01*
X-91819Y5000D01*
X-91944Y5953D01*
X-92312Y6841D01*
X-92897Y7603D01*
X-93660Y8188D01*
X-94547Y8556D01*
X-95500Y8681D01*
D02*
G37*
G36*
X93500Y4681D02*
X92547Y4556D01*
X91659Y4188D01*
X90897Y3603D01*
X90312Y2840D01*
X89944Y1953D01*
X89819Y1000D01*
X89944Y47D01*
X90312Y-840D01*
X90897Y-1603D01*
X91659Y-2188D01*
X92547Y-2556D01*
X93500Y-2681D01*
X94453Y-2556D01*
X95341Y-2188D01*
X96103Y-1603D01*
X96688Y-840D01*
X97056Y47D01*
X97181Y1000D01*
X97056Y1953D01*
X96688Y2840D01*
X96103Y3603D01*
X95341Y4188D01*
X94453Y4556D01*
X93500Y4681D01*
D02*
G37*
G36*
X-95500Y-1319D02*
X-96453Y-1444D01*
X-97341Y-1812D01*
X-98103Y-2397D01*
X-98688Y-3159D01*
X-99056Y-4047D01*
X-99181Y-5000D01*
X-99056Y-5953D01*
X-98688Y-6841D01*
X-98103Y-7603D01*
X-97341Y-8188D01*
X-96453Y-8556D01*
X-95500Y-8681D01*
X-94547Y-8556D01*
X-93660Y-8188D01*
X-92897Y-7603D01*
X-92312Y-6841D01*
X-91944Y-5953D01*
X-91819Y-5000D01*
X-91944Y-4047D01*
X-92312Y-3159D01*
X-92897Y-2397D01*
X-93660Y-1812D01*
X-94547Y-1444D01*
X-95500Y-1319D01*
D02*
G37*
G36*
X93500Y-5319D02*
X92547Y-5444D01*
X91659Y-5812D01*
X90897Y-6397D01*
X90312Y-7159D01*
X89944Y-8047D01*
X89819Y-9000D01*
X89944Y-9953D01*
X90312Y-10841D01*
X90897Y-11603D01*
X91659Y-12188D01*
X92547Y-12556D01*
X93500Y-12681D01*
X94453Y-12556D01*
X95341Y-12188D01*
X96103Y-11603D01*
X96688Y-10841D01*
X97056Y-9953D01*
X97181Y-9000D01*
X97056Y-8047D01*
X96688Y-7159D01*
X96103Y-6397D01*
X95341Y-5812D01*
X94453Y-5444D01*
X93500Y-5319D01*
D02*
G37*
G36*
X-54894Y10453D02*
X-61799D01*
Y3547D01*
X-60386D01*
Y-2502D01*
X-70845Y-12961D01*
X-92465D01*
X-92897Y-12397D01*
X-93660Y-11812D01*
X-94547Y-11444D01*
X-95500Y-11319D01*
X-96453Y-11444D01*
X-97341Y-11812D01*
X-98103Y-12397D01*
X-98688Y-13160D01*
X-99056Y-14047D01*
X-99181Y-15000D01*
X-99056Y-15953D01*
X-98688Y-16840D01*
X-98103Y-17603D01*
X-97341Y-18188D01*
X-96453Y-18556D01*
X-95500Y-18681D01*
X-94547Y-18556D01*
X-93660Y-18188D01*
X-92897Y-17603D01*
X-92465Y-17039D01*
X-70000D01*
X-69220Y-16884D01*
X-68558Y-16442D01*
X-56905Y-4788D01*
X-56463Y-4127D01*
X-56307Y-3347D01*
Y3547D01*
X-54894D01*
Y10453D01*
D02*
G37*
G36*
X93500Y-15319D02*
X92547Y-15444D01*
X91659Y-15812D01*
X90897Y-16397D01*
X90312Y-17160D01*
X89944Y-18047D01*
X89819Y-19000D01*
X89944Y-19953D01*
X90312Y-20841D01*
X90897Y-21603D01*
X91659Y-22188D01*
X92547Y-22556D01*
X93500Y-22681D01*
X94453Y-22556D01*
X95341Y-22188D01*
X96103Y-21603D01*
X96688Y-20841D01*
X97056Y-19953D01*
X97181Y-19000D01*
X97056Y-18047D01*
X96688Y-17160D01*
X96103Y-16397D01*
X95341Y-15812D01*
X94453Y-15444D01*
X93500Y-15319D01*
D02*
G37*
G36*
X-95000Y-20880D02*
Y-24500D01*
X-91380D01*
X-91457Y-23917D01*
X-91875Y-22907D01*
X-92541Y-22040D01*
X-93407Y-21375D01*
X-94417Y-20957D01*
X-95000Y-20880D01*
D02*
G37*
G36*
X-96000D02*
X-96583Y-20957D01*
X-97593Y-21375D01*
X-98460Y-22040D01*
X-99125Y-22907D01*
X-99543Y-23917D01*
X-99620Y-24500D01*
X-96000D01*
Y-20880D01*
D02*
G37*
G36*
X41500Y-23236D02*
Y-26200D01*
X44464D01*
X44410Y-25786D01*
X44057Y-24935D01*
X43496Y-24204D01*
X42765Y-23643D01*
X41914Y-23290D01*
X41500Y-23236D01*
D02*
G37*
G36*
X40500D02*
X40086Y-23290D01*
X39235Y-23643D01*
X38504Y-24204D01*
X37943Y-24935D01*
X37590Y-25786D01*
X37536Y-26200D01*
X40500D01*
Y-23236D01*
D02*
G37*
G36*
X-14000Y-24336D02*
Y-27300D01*
X-11036D01*
X-11090Y-26886D01*
X-11443Y-26035D01*
X-12004Y-25304D01*
X-12735Y-24743D01*
X-13586Y-24390D01*
X-14000Y-24336D01*
D02*
G37*
G36*
X-15000D02*
X-15414Y-24390D01*
X-16265Y-24743D01*
X-16996Y-25304D01*
X-17557Y-26035D01*
X-17910Y-26886D01*
X-17964Y-27300D01*
X-15000D01*
Y-24336D01*
D02*
G37*
G36*
X-65815Y-24536D02*
Y-27500D01*
X-62851D01*
X-62905Y-27086D01*
X-63258Y-26235D01*
X-63819Y-25504D01*
X-64550Y-24943D01*
X-65401Y-24590D01*
X-65815Y-24536D01*
D02*
G37*
G36*
X-66815D02*
X-67229Y-24590D01*
X-68080Y-24943D01*
X-68811Y-25504D01*
X-69372Y-26235D01*
X-69725Y-27086D01*
X-69779Y-27500D01*
X-66815D01*
Y-24536D01*
D02*
G37*
G36*
X-91380Y-25500D02*
X-95000D01*
Y-29120D01*
X-94417Y-29043D01*
X-93407Y-28625D01*
X-92541Y-27959D01*
X-91875Y-27093D01*
X-91457Y-26083D01*
X-91380Y-25500D01*
D02*
G37*
G36*
X-96000D02*
X-99620D01*
X-99543Y-26083D01*
X-99125Y-27093D01*
X-98460Y-27959D01*
X-97593Y-28625D01*
X-96583Y-29043D01*
X-96000Y-29120D01*
Y-25500D01*
D02*
G37*
G36*
X44464Y-27200D02*
X41500D01*
Y-30164D01*
X41914Y-30110D01*
X42765Y-29757D01*
X43496Y-29196D01*
X44057Y-28465D01*
X44410Y-27614D01*
X44464Y-27200D01*
D02*
G37*
G36*
X40500D02*
X37536D01*
X37590Y-27614D01*
X37943Y-28465D01*
X38504Y-29196D01*
X39235Y-29757D01*
X40086Y-30110D01*
X40500Y-30164D01*
Y-27200D01*
D02*
G37*
G36*
X-11036Y-28300D02*
X-14000D01*
Y-31264D01*
X-13586Y-31210D01*
X-12735Y-30857D01*
X-12004Y-30296D01*
X-11443Y-29565D01*
X-11090Y-28714D01*
X-11036Y-28300D01*
D02*
G37*
G36*
X-15000D02*
X-17964D01*
X-17910Y-28714D01*
X-17557Y-29565D01*
X-16996Y-30296D01*
X-16265Y-30857D01*
X-15414Y-31210D01*
X-15000Y-31264D01*
Y-28300D01*
D02*
G37*
G36*
X-62851Y-28500D02*
X-65815D01*
Y-31464D01*
X-65401Y-31410D01*
X-64550Y-31057D01*
X-63819Y-30496D01*
X-63258Y-29765D01*
X-62905Y-28914D01*
X-62851Y-28500D01*
D02*
G37*
G36*
X-66815D02*
X-69779D01*
X-69725Y-28914D01*
X-69372Y-29765D01*
X-68811Y-30496D01*
X-68080Y-31057D01*
X-67229Y-31410D01*
X-66815Y-31464D01*
Y-28500D01*
D02*
G37*
G36*
X93500Y-25319D02*
X92547Y-25444D01*
X91659Y-25812D01*
X90897Y-26397D01*
X90312Y-27160D01*
X89944Y-28047D01*
X89819Y-29000D01*
X89944Y-29953D01*
X90312Y-30841D01*
X90897Y-31603D01*
X91659Y-32188D01*
X92547Y-32556D01*
X93500Y-32681D01*
X94453Y-32556D01*
X95341Y-32188D01*
X96103Y-31603D01*
X96688Y-30841D01*
X97056Y-29953D01*
X97181Y-29000D01*
X97056Y-28047D01*
X96688Y-27160D01*
X96103Y-26397D01*
X95341Y-25812D01*
X94453Y-25444D01*
X93500Y-25319D01*
D02*
G37*
G36*
X-95000Y-30880D02*
Y-34500D01*
X-91380D01*
X-91457Y-33917D01*
X-91875Y-32907D01*
X-92541Y-32041D01*
X-93407Y-31375D01*
X-94417Y-30957D01*
X-95000Y-30880D01*
D02*
G37*
G36*
X-96000D02*
X-96583Y-30957D01*
X-97593Y-31375D01*
X-98460Y-32041D01*
X-99125Y-32907D01*
X-99543Y-33917D01*
X-99620Y-34500D01*
X-96000D01*
Y-30880D01*
D02*
G37*
G36*
X-91380Y-35500D02*
X-95000D01*
Y-39120D01*
X-94417Y-39043D01*
X-93407Y-38625D01*
X-92541Y-37960D01*
X-91875Y-37093D01*
X-91457Y-36083D01*
X-91380Y-35500D01*
D02*
G37*
G36*
X-96000D02*
X-99620D01*
X-99543Y-36083D01*
X-99125Y-37093D01*
X-98460Y-37960D01*
X-97593Y-38625D01*
X-96583Y-39043D01*
X-96000Y-39120D01*
Y-35500D01*
D02*
G37*
G36*
X93500Y-40319D02*
X92547Y-40444D01*
X91659Y-40812D01*
X90897Y-41397D01*
X90312Y-42160D01*
X89944Y-43047D01*
X89819Y-44000D01*
X89944Y-44953D01*
X90312Y-45840D01*
X90897Y-46603D01*
X91659Y-47188D01*
X92547Y-47556D01*
X93500Y-47681D01*
X94453Y-47556D01*
X95341Y-47188D01*
X96103Y-46603D01*
X96688Y-45840D01*
X97056Y-44953D01*
X97181Y-44000D01*
X97056Y-43047D01*
X96688Y-42160D01*
X96103Y-41397D01*
X95341Y-40812D01*
X94453Y-40444D01*
X93500Y-40319D01*
D02*
G37*
G36*
X-95500Y-41319D02*
X-96453Y-41444D01*
X-97341Y-41812D01*
X-98103Y-42397D01*
X-98688Y-43159D01*
X-99056Y-44047D01*
X-99181Y-45000D01*
X-99056Y-45953D01*
X-98688Y-46841D01*
X-98103Y-47603D01*
X-97341Y-48188D01*
X-96453Y-48556D01*
X-95500Y-48681D01*
X-94547Y-48556D01*
X-93660Y-48188D01*
X-92897Y-47603D01*
X-92312Y-46841D01*
X-91944Y-45953D01*
X-91819Y-45000D01*
X-91944Y-44047D01*
X-92312Y-43159D01*
X-92897Y-42397D01*
X-93660Y-41812D01*
X-94547Y-41444D01*
X-95500Y-41319D01*
D02*
G37*
G36*
X93500Y-50319D02*
X92547Y-50444D01*
X91659Y-50812D01*
X90897Y-51397D01*
X90312Y-52160D01*
X89944Y-53047D01*
X89819Y-54000D01*
X89944Y-54953D01*
X90312Y-55840D01*
X90897Y-56603D01*
X91659Y-57188D01*
X92547Y-57556D01*
X93500Y-57681D01*
X94453Y-57556D01*
X95341Y-57188D01*
X96103Y-56603D01*
X96688Y-55840D01*
X97056Y-54953D01*
X97181Y-54000D01*
X97056Y-53047D01*
X96688Y-52160D01*
X96103Y-51397D01*
X95341Y-50812D01*
X94453Y-50444D01*
X93500Y-50319D01*
D02*
G37*
G36*
X-91850Y-60350D02*
X-99150D01*
Y-67650D01*
X-91850D01*
Y-60350D01*
D02*
G37*
G36*
X93500Y-60319D02*
X92547Y-60444D01*
X91659Y-60812D01*
X90897Y-61397D01*
X90312Y-62160D01*
X89944Y-63047D01*
X89819Y-64000D01*
X89944Y-64953D01*
X90312Y-65841D01*
X90897Y-66603D01*
X91659Y-67188D01*
X92547Y-67556D01*
X93500Y-67681D01*
X94453Y-67556D01*
X95341Y-67188D01*
X96103Y-66603D01*
X96688Y-65841D01*
X97056Y-64953D01*
X97181Y-64000D01*
X97056Y-63047D01*
X96688Y-62160D01*
X96103Y-61397D01*
X95341Y-60812D01*
X94453Y-60444D01*
X93500Y-60319D01*
D02*
G37*
G36*
X-39500Y-24066D02*
X-40183Y-24202D01*
X-40762Y-24589D01*
X-41148Y-25168D01*
X-41284Y-25850D01*
X-41148Y-26533D01*
X-40762Y-27112D01*
X-40183Y-27499D01*
X-39500Y-27635D01*
X-38817Y-27499D01*
X-38238Y-27112D01*
X-38077Y-26870D01*
X-33072D01*
X-33020Y-26922D01*
Y-46000D01*
X-32942Y-46390D01*
X-32721Y-46721D01*
X-27020Y-52422D01*
Y-67577D01*
X-27262Y-67738D01*
X-27648Y-68317D01*
X-27758Y-68868D01*
X-27915Y-68974D01*
X-35922Y-76980D01*
X-47577D01*
X-47738Y-76738D01*
X-48317Y-76351D01*
X-49000Y-76216D01*
X-49683Y-76351D01*
X-50262Y-76738D01*
X-50648Y-77317D01*
X-50784Y-78000D01*
X-50648Y-78683D01*
X-50262Y-79262D01*
X-50020Y-79423D01*
Y-87031D01*
X-56221Y-93232D01*
X-56442Y-93563D01*
X-56520Y-93953D01*
Y-108078D01*
X-61963Y-113521D01*
X-73232D01*
Y-111186D01*
X-74878D01*
Y-106854D01*
X-73232D01*
Y-100146D01*
X-78957D01*
Y-106854D01*
X-76917D01*
Y-111186D01*
X-78957D01*
Y-117895D01*
X-73232D01*
Y-115560D01*
X-61540D01*
X-61150Y-115482D01*
X-60819Y-115261D01*
X-54779Y-109221D01*
X-54558Y-108890D01*
X-54480Y-108500D01*
Y-94375D01*
X-48279Y-88174D01*
X-48058Y-87843D01*
X-47980Y-87453D01*
Y-79423D01*
X-47738Y-79262D01*
X-47577Y-79020D01*
X-35500D01*
X-35110Y-78942D01*
X-34779Y-78721D01*
X-26697Y-70639D01*
X-26683Y-70648D01*
X-26000Y-70784D01*
X-25317Y-70648D01*
X-24738Y-70262D01*
X-24351Y-69683D01*
X-24216Y-69000D01*
X-24351Y-68317D01*
X-24738Y-67738D01*
X-24980Y-67577D01*
Y-52000D01*
X-25058Y-51610D01*
X-25279Y-51279D01*
X-30980Y-45578D01*
Y-26500D01*
X-31058Y-26110D01*
X-31279Y-25779D01*
X-31929Y-25129D01*
X-32259Y-24908D01*
X-32650Y-24831D01*
X-38077D01*
X-38238Y-24589D01*
X-38817Y-24202D01*
X-39500Y-24066D01*
D02*
G37*
G36*
X4500Y-70805D02*
Y-72500D01*
X6195D01*
X6119Y-72122D01*
X5622Y-71378D01*
X4878Y-70881D01*
X4500Y-70805D01*
D02*
G37*
G36*
X3500D02*
X3122Y-70881D01*
X2378Y-71378D01*
X1881Y-72122D01*
X1805Y-72500D01*
X3500D01*
Y-70805D01*
D02*
G37*
G36*
X-48500D02*
Y-72500D01*
X-46805D01*
X-46880Y-72122D01*
X-47378Y-71378D01*
X-48122Y-70881D01*
X-48500Y-70805D01*
D02*
G37*
G36*
X-49500D02*
X-49878Y-70881D01*
X-50622Y-71378D01*
X-51120Y-72122D01*
X-51195Y-72500D01*
X-49500D01*
Y-70805D01*
D02*
G37*
G36*
X57600Y-71305D02*
Y-73000D01*
X59295D01*
X59219Y-72622D01*
X58722Y-71878D01*
X57978Y-71381D01*
X57600Y-71305D01*
D02*
G37*
G36*
X56600D02*
X56222Y-71381D01*
X55478Y-71878D01*
X54981Y-72622D01*
X54905Y-73000D01*
X56600D01*
Y-71305D01*
D02*
G37*
G36*
X-46805Y-73500D02*
X-48500D01*
Y-75195D01*
X-48122Y-75119D01*
X-47378Y-74622D01*
X-46880Y-73878D01*
X-46805Y-73500D01*
D02*
G37*
G36*
X-49500D02*
X-51195D01*
X-51120Y-73878D01*
X-50622Y-74622D01*
X-49878Y-75119D01*
X-49500Y-75195D01*
Y-73500D01*
D02*
G37*
G36*
X59295Y-74000D02*
X57600D01*
Y-75695D01*
X57978Y-75619D01*
X58722Y-75122D01*
X59219Y-74378D01*
X59295Y-74000D01*
D02*
G37*
G36*
X56600D02*
X54905D01*
X54981Y-74378D01*
X55478Y-75122D01*
X56222Y-75619D01*
X56600Y-75695D01*
Y-74000D01*
D02*
G37*
G36*
X93500Y-70319D02*
X92547Y-70444D01*
X91659Y-70812D01*
X90897Y-71397D01*
X90312Y-72159D01*
X89944Y-73047D01*
X89819Y-74000D01*
X89944Y-74953D01*
X90312Y-75841D01*
X90897Y-76603D01*
X91659Y-77188D01*
X92547Y-77556D01*
X93500Y-77681D01*
X94453Y-77556D01*
X95341Y-77188D01*
X96103Y-76603D01*
X96688Y-75841D01*
X97056Y-74953D01*
X97181Y-74000D01*
X97056Y-73047D01*
X96688Y-72159D01*
X96103Y-71397D01*
X95341Y-70812D01*
X94453Y-70444D01*
X93500Y-70319D01*
D02*
G37*
G36*
X-95500D02*
X-96453Y-70444D01*
X-97341Y-70812D01*
X-98103Y-71397D01*
X-98688Y-72159D01*
X-99056Y-73047D01*
X-99181Y-74000D01*
X-99056Y-74953D01*
X-98688Y-75841D01*
X-98103Y-76603D01*
X-97341Y-77188D01*
X-96453Y-77556D01*
X-95500Y-77681D01*
X-94547Y-77556D01*
X-93660Y-77188D01*
X-92897Y-76603D01*
X-92312Y-75841D01*
X-91944Y-74953D01*
X-91819Y-74000D01*
X-91944Y-73047D01*
X-92312Y-72159D01*
X-92897Y-71397D01*
X-93660Y-70812D01*
X-94547Y-70444D01*
X-95500Y-70319D01*
D02*
G37*
G36*
X93500Y-80319D02*
X92547Y-80444D01*
X91659Y-80812D01*
X90897Y-81397D01*
X90312Y-82160D01*
X89944Y-83047D01*
X89819Y-84000D01*
X89944Y-84953D01*
X90312Y-85840D01*
X90897Y-86603D01*
X91659Y-87188D01*
X92547Y-87556D01*
X93500Y-87681D01*
X94453Y-87556D01*
X95341Y-87188D01*
X96103Y-86603D01*
X96688Y-85840D01*
X97056Y-84953D01*
X97181Y-84000D01*
X97056Y-83047D01*
X96688Y-82160D01*
X96103Y-81397D01*
X95341Y-80812D01*
X94453Y-80444D01*
X93500Y-80319D01*
D02*
G37*
G36*
X-95500D02*
X-96453Y-80444D01*
X-97341Y-80812D01*
X-98103Y-81397D01*
X-98688Y-82160D01*
X-99056Y-83047D01*
X-99181Y-84000D01*
X-99056Y-84953D01*
X-98688Y-85840D01*
X-98103Y-86603D01*
X-97341Y-87188D01*
X-96453Y-87556D01*
X-95500Y-87681D01*
X-94547Y-87556D01*
X-93660Y-87188D01*
X-92897Y-86603D01*
X-92312Y-85840D01*
X-91944Y-84953D01*
X-91819Y-84000D01*
X-91944Y-83047D01*
X-92312Y-82160D01*
X-92897Y-81397D01*
X-93660Y-80812D01*
X-94547Y-80444D01*
X-95500Y-80319D01*
D02*
G37*
G36*
X6195Y-73500D02*
X1805D01*
X1881Y-73878D01*
X2378Y-74622D01*
X3122Y-75119D01*
X3726Y-75240D01*
X3778Y-75250D01*
Y-75760D01*
X3726Y-75770D01*
X3317Y-75852D01*
X2738Y-76238D01*
X2351Y-76817D01*
X2216Y-77500D01*
X2351Y-78183D01*
X2738Y-78762D01*
X3317Y-79149D01*
X4000Y-79284D01*
X4683Y-79149D01*
X5262Y-78762D01*
X5423Y-78520D01*
X26578D01*
X33773Y-85714D01*
X33716Y-86000D01*
X33852Y-86683D01*
X34238Y-87262D01*
X34817Y-87648D01*
X35500Y-87784D01*
X36183Y-87648D01*
X36762Y-87262D01*
X37148Y-86683D01*
X37284Y-86000D01*
X37148Y-85317D01*
X36762Y-84738D01*
X36183Y-84351D01*
X35500Y-84216D01*
X35214Y-84272D01*
X27721Y-76779D01*
X27390Y-76558D01*
X27000Y-76480D01*
X5423D01*
X5262Y-76238D01*
X4683Y-75852D01*
X4274Y-75770D01*
X4222Y-75760D01*
Y-75250D01*
X4274Y-75240D01*
X4878Y-75119D01*
X5622Y-74622D01*
X6119Y-73878D01*
X6195Y-73500D01*
D02*
G37*
G36*
X93500Y-90319D02*
X92547Y-90444D01*
X91659Y-90812D01*
X90897Y-91397D01*
X90312Y-92159D01*
X89944Y-93047D01*
X89819Y-94000D01*
X89944Y-94953D01*
X90312Y-95841D01*
X90897Y-96603D01*
X91659Y-97188D01*
X92547Y-97556D01*
X93500Y-97681D01*
X94453Y-97556D01*
X95341Y-97188D01*
X96103Y-96603D01*
X96688Y-95841D01*
X97056Y-94953D01*
X97181Y-94000D01*
X97056Y-93047D01*
X96688Y-92159D01*
X96103Y-91397D01*
X95341Y-90812D01*
X94453Y-90444D01*
X93500Y-90319D01*
D02*
G37*
G36*
X-95500D02*
X-96453Y-90444D01*
X-97341Y-90812D01*
X-98103Y-91397D01*
X-98688Y-92159D01*
X-99056Y-93047D01*
X-99181Y-94000D01*
X-99056Y-94953D01*
X-98688Y-95841D01*
X-98103Y-96603D01*
X-97341Y-97188D01*
X-96453Y-97556D01*
X-95500Y-97681D01*
X-94547Y-97556D01*
X-93660Y-97188D01*
X-92897Y-96603D01*
X-92312Y-95841D01*
X-91944Y-94953D01*
X-91819Y-94000D01*
X-91944Y-93047D01*
X-92312Y-92159D01*
X-92897Y-91397D01*
X-93660Y-90812D01*
X-94547Y-90444D01*
X-95500Y-90319D01*
D02*
G37*
G36*
X-81106Y-100146D02*
X-86831D01*
Y-102980D01*
X-91972D01*
X-92312Y-102160D01*
X-92897Y-101397D01*
X-93660Y-100812D01*
X-94547Y-100444D01*
X-95500Y-100319D01*
X-96453Y-100444D01*
X-97341Y-100812D01*
X-98103Y-101397D01*
X-98688Y-102160D01*
X-99056Y-103047D01*
X-99181Y-104000D01*
X-99056Y-104953D01*
X-98688Y-105841D01*
X-98103Y-106603D01*
X-97341Y-107188D01*
X-96453Y-107556D01*
X-95500Y-107681D01*
X-94547Y-107556D01*
X-93660Y-107188D01*
X-92897Y-106603D01*
X-92312Y-105841D01*
X-91972Y-105020D01*
X-86831D01*
Y-106854D01*
X-81106D01*
Y-100146D01*
D02*
G37*
G36*
X64134Y-95167D02*
X54866D01*
Y-104435D01*
X64134D01*
Y-95167D01*
D02*
G37*
G36*
X10634D02*
X1366D01*
Y-104435D01*
X10634D01*
Y-95167D01*
D02*
G37*
G36*
X-42866D02*
X-52134D01*
Y-104435D01*
X-42866D01*
Y-95167D01*
D02*
G37*
G36*
X44500Y-40974D02*
X43717Y-41077D01*
X42987Y-41379D01*
X42360Y-41860D01*
X41879Y-42487D01*
X41577Y-43217D01*
X41474Y-44000D01*
Y-96282D01*
X41195Y-96496D01*
X40452Y-97464D01*
X39985Y-98591D01*
X39826Y-99801D01*
X39985Y-101011D01*
X40452Y-102138D01*
X41195Y-103106D01*
X42163Y-103849D01*
X43290Y-104316D01*
X44500Y-104475D01*
X45710Y-104316D01*
X46837Y-103849D01*
X47805Y-103106D01*
X48548Y-102138D01*
X49015Y-101011D01*
X49174Y-99801D01*
X49015Y-98591D01*
X48548Y-97464D01*
X47805Y-96496D01*
X47526Y-96282D01*
Y-44000D01*
X47423Y-43217D01*
X47120Y-42487D01*
X46640Y-41860D01*
X46013Y-41379D01*
X45283Y-41077D01*
X44500Y-40974D01*
D02*
G37*
G36*
X-9500Y-41974D02*
X-10283Y-42077D01*
X-11013Y-42380D01*
X-11640Y-42860D01*
X-12121Y-43487D01*
X-12423Y-44217D01*
X-12526Y-45000D01*
Y-96784D01*
X-13048Y-97464D01*
X-13515Y-98591D01*
X-13674Y-99801D01*
X-13515Y-101011D01*
X-13048Y-102138D01*
X-12305Y-103106D01*
X-11337Y-103849D01*
X-10210Y-104316D01*
X-9000Y-104475D01*
X-7790Y-104316D01*
X-6663Y-103849D01*
X-5695Y-103106D01*
X-4952Y-102138D01*
X-4485Y-101011D01*
X-4326Y-99801D01*
X-4485Y-98591D01*
X-4952Y-97464D01*
X-5695Y-96496D01*
X-6474Y-95898D01*
Y-45000D01*
X-6577Y-44217D01*
X-6880Y-43487D01*
X-7360Y-42860D01*
X-7987Y-42380D01*
X-8717Y-42077D01*
X-9500Y-41974D01*
D02*
G37*
G36*
X-62500D02*
X-63283Y-42077D01*
X-64013Y-42380D01*
X-64640Y-42860D01*
X-65121Y-43487D01*
X-65423Y-44217D01*
X-65526Y-45000D01*
Y-96282D01*
X-65805Y-96496D01*
X-66548Y-97464D01*
X-67015Y-98591D01*
X-67174Y-99801D01*
X-67015Y-101011D01*
X-66548Y-102138D01*
X-65805Y-103106D01*
X-64837Y-103849D01*
X-63710Y-104316D01*
X-62500Y-104475D01*
X-61290Y-104316D01*
X-60163Y-103849D01*
X-59195Y-103106D01*
X-58452Y-102138D01*
X-57985Y-101011D01*
X-57826Y-99801D01*
X-57985Y-98591D01*
X-58452Y-97464D01*
X-59195Y-96496D01*
X-59474Y-96282D01*
Y-45000D01*
X-59577Y-44217D01*
X-59879Y-43487D01*
X-60360Y-42860D01*
X-60987Y-42380D01*
X-61717Y-42077D01*
X-62500Y-41974D01*
D02*
G37*
G36*
X93500Y-100319D02*
X92547Y-100444D01*
X91659Y-100812D01*
X90897Y-101397D01*
X90312Y-102160D01*
X89944Y-103047D01*
X89819Y-104000D01*
X89944Y-104953D01*
X90312Y-105841D01*
X90897Y-106603D01*
X91659Y-107188D01*
X92547Y-107556D01*
X93500Y-107681D01*
X94453Y-107556D01*
X95341Y-107188D01*
X96103Y-106603D01*
X96688Y-105841D01*
X97056Y-104953D01*
X97181Y-104000D01*
X97056Y-103047D01*
X96688Y-102160D01*
X96103Y-101397D01*
X95341Y-100812D01*
X94453Y-100444D01*
X93500Y-100319D01*
D02*
G37*
G36*
X97150Y-110350D02*
X89850D01*
Y-117650D01*
X97150D01*
Y-110350D01*
D02*
G37*
G36*
X-95500Y-110319D02*
X-96453Y-110444D01*
X-97341Y-110812D01*
X-98103Y-111397D01*
X-98688Y-112160D01*
X-99056Y-113047D01*
X-99181Y-114000D01*
X-99056Y-114953D01*
X-98688Y-115840D01*
X-98103Y-116603D01*
X-97341Y-117188D01*
X-96453Y-117556D01*
X-95500Y-117681D01*
X-94547Y-117556D01*
X-93660Y-117188D01*
X-92897Y-116603D01*
X-92312Y-115840D01*
X-91972Y-115020D01*
X-86831D01*
Y-117895D01*
X-81106D01*
Y-111186D01*
X-86831D01*
Y-112980D01*
X-91972D01*
X-92312Y-112160D01*
X-92897Y-111397D01*
X-93660Y-110812D01*
X-94547Y-110444D01*
X-95500Y-110319D01*
D02*
G37*
%LPD*%
D62*
X60154Y18500D02*
X68000D01*
X48654Y7000D02*
X60154Y18500D01*
X-89000Y69000D02*
X-48000D01*
D63*
X-60406Y13000D02*
X-57500D01*
X-61406Y12000D02*
X-60406Y13000D01*
X-83250Y18500D02*
X-67500D01*
X-84250Y14750D02*
X-63750D01*
X-63500Y15000D01*
X-84000Y10000D02*
X-82000Y12000D01*
X-61406D01*
X-84000Y19250D02*
X-83250Y18500D01*
X-75898Y-114344D02*
Y-103500D01*
X-49000Y-78000D02*
X-35500D01*
X-39500Y-25850D02*
X-32650D01*
X-32000Y-26500D01*
Y-46000D02*
Y-26500D01*
Y-46000D02*
X-26000Y-52000D01*
Y-69000D02*
Y-52000D01*
X-76095Y-114540D02*
X-75898Y-114344D01*
X-76095Y-103500D02*
X-75898D01*
X-76095Y-114540D02*
X-61540D01*
X-55500Y-108500D01*
X-49000Y-87453D02*
Y-78000D01*
X-55500Y-93953D02*
X-49000Y-87453D01*
X-55500Y-108500D02*
Y-93953D01*
X-84509Y-114000D02*
X-83969Y-114540D01*
X-95500Y-114000D02*
X-84509D01*
X-84469Y-104000D02*
X-83969Y-103500D01*
X-95500Y-104000D02*
X-84469D01*
X4000Y-77500D02*
X27000D01*
X35500Y-86000D01*
X-27100Y-69695D02*
X-26406Y-69000D01*
X-27194Y-69695D02*
X-27100D01*
X-35500Y-78000D02*
X-27194Y-69695D01*
X-26406Y-69000D02*
X-26000D01*
D65*
X44500Y-99801D02*
Y-44000D01*
X-62500Y-99801D02*
Y-45000D01*
X-9500Y-99301D02*
X-9000Y-99801D01*
X-9500Y-99301D02*
Y-45000D01*
D67*
X-58346Y-3347D02*
Y7000D01*
X-70000Y-15000D02*
X-58346Y-3347D01*
X-95500Y-15000D02*
X-70000D01*
D68*
X93500Y-9000D02*
D03*
Y1000D02*
D03*
Y21000D02*
D03*
Y41000D02*
D03*
Y51000D02*
D03*
Y31000D02*
D03*
Y11000D02*
D03*
Y-19000D02*
D03*
Y-29000D02*
D03*
X-95500Y-25000D02*
D03*
Y-5000D02*
D03*
Y15000D02*
D03*
Y5000D02*
D03*
Y-15000D02*
D03*
Y-35000D02*
D03*
Y-45000D02*
D03*
Y-94000D02*
D03*
Y-74000D02*
D03*
Y-84000D02*
D03*
Y-104000D02*
D03*
Y-114000D02*
D03*
X93500Y-64000D02*
D03*
Y-84000D02*
D03*
Y-104000D02*
D03*
Y-94000D02*
D03*
Y-74000D02*
D03*
Y-54000D02*
D03*
Y-44000D02*
D03*
D69*
Y61000D02*
D03*
X-95500Y25000D02*
D03*
Y-64000D02*
D03*
X93500Y-114000D02*
D03*
D70*
Y76000D02*
D03*
Y86000D02*
D03*
Y96000D02*
D03*
Y106000D02*
D03*
Y116000D02*
D03*
D71*
Y126000D02*
D03*
D72*
X-47500Y-99801D02*
D03*
X6000D02*
D03*
X59500D02*
D03*
D73*
X-62500D02*
D03*
X-9000D02*
D03*
X44500D02*
D03*
D74*
X48654Y7000D02*
D03*
X-58346D02*
D03*
X-4846D02*
D03*
D75*
X58496D02*
D03*
X-48504D02*
D03*
X4996D02*
D03*
D76*
X-85216Y109221D02*
D03*
D77*
X-66713Y121031D02*
D03*
Y97409D02*
D03*
D78*
X41000Y-26700D02*
D03*
X-14500Y-27800D02*
D03*
X-62500Y-45000D02*
D03*
X-66315Y-28000D02*
D03*
X44500Y-44000D02*
D03*
X-9500Y-45000D02*
D03*
D79*
X57100Y-73500D02*
D03*
X77894Y9445D02*
D03*
X-29000Y8500D02*
D03*
X24500Y9500D02*
D03*
X-57500Y13000D02*
D03*
X-67500Y18500D02*
D03*
X-63500Y15000D02*
D03*
X-84000Y14750D02*
D03*
Y19250D02*
D03*
Y10000D02*
D03*
X68000Y18500D02*
D03*
X4000Y-73000D02*
D03*
X-49000D02*
D03*
X-89000Y69000D02*
D03*
X-48000D02*
D03*
X-39500Y-25850D02*
D03*
X35500Y-86000D02*
D03*
X4000Y-77500D02*
D03*
X-26000Y-69000D02*
D03*
X-49000Y-78000D02*
D03*
D80*
X-76095Y-114540D02*
D03*
X-83969D02*
D03*
X-76095Y-103500D02*
D03*
X-83969D02*
D03*
M02*
